G04 #@! TF.GenerationSoftware,KiCad,Pcbnew,(5.1.6)-1*
G04 #@! TF.CreationDate,2020-05-17T06:20:34+03:00*
G04 #@! TF.ProjectId,corne-cherry,636f726e-652d-4636-9865-7272792e6b69,2.1*
G04 #@! TF.SameCoordinates,Original*
G04 #@! TF.FileFunction,Soldermask,Bot*
G04 #@! TF.FilePolarity,Negative*
%FSLAX46Y46*%
G04 Gerber Fmt 4.6, Leading zero omitted, Abs format (unit mm)*
G04 Created by KiCad (PCBNEW (5.1.6)-1) date 2020-05-17 06:20:34*
%MOMM*%
%LPD*%
G01*
G04 APERTURE LIST*
%ADD10C,0.125000*%
%ADD11C,2.100000*%
%ADD12C,0.100000*%
%ADD13C,2.300000*%
%ADD14C,4.500000*%
%ADD15C,3.400000*%
%ADD16R,2.700000X2.400000*%
%ADD17C,1.600000*%
%ADD18O,2.900000X2.100000*%
%ADD19R,2.400000X1.400000*%
%ADD20R,2.000000X1.400000*%
%ADD21C,1.924000*%
%ADD22R,1.350000X1.700000*%
%ADD23C,1.797000*%
%ADD24R,1.543000X1.035000*%
%ADD25R,1.924000X1.924000*%
%ADD26C,5.400000*%
%ADD27C,4.400000*%
%ADD28C,2.400000*%
G04 APERTURE END LIST*
D10*
X116659226Y-120994642D02*
X116706845Y-121042261D01*
X116849702Y-121089880D01*
X116944940Y-121089880D01*
X117087797Y-121042261D01*
X117183035Y-120947023D01*
X117230654Y-120851785D01*
X117278273Y-120661309D01*
X117278273Y-120518452D01*
X117230654Y-120327976D01*
X117183035Y-120232738D01*
X117087797Y-120137500D01*
X116944940Y-120089880D01*
X116849702Y-120089880D01*
X116706845Y-120137500D01*
X116659226Y-120185119D01*
X116087797Y-121089880D02*
X116183035Y-121042261D01*
X116230654Y-120994642D01*
X116278273Y-120899404D01*
X116278273Y-120613690D01*
X116230654Y-120518452D01*
X116183035Y-120470833D01*
X116087797Y-120423214D01*
X115944940Y-120423214D01*
X115849702Y-120470833D01*
X115802083Y-120518452D01*
X115754464Y-120613690D01*
X115754464Y-120899404D01*
X115802083Y-120994642D01*
X115849702Y-121042261D01*
X115944940Y-121089880D01*
X116087797Y-121089880D01*
X115325892Y-121089880D02*
X115325892Y-120423214D01*
X115325892Y-120613690D02*
X115278273Y-120518452D01*
X115230654Y-120470833D01*
X115135416Y-120423214D01*
X115040178Y-120423214D01*
X114706845Y-120423214D02*
X114706845Y-121089880D01*
X114706845Y-120518452D02*
X114659226Y-120470833D01*
X114563988Y-120423214D01*
X114421130Y-120423214D01*
X114325892Y-120470833D01*
X114278273Y-120566071D01*
X114278273Y-121089880D01*
X113421130Y-121042261D02*
X113516369Y-121089880D01*
X113706845Y-121089880D01*
X113802083Y-121042261D01*
X113849702Y-120947023D01*
X113849702Y-120566071D01*
X113802083Y-120470833D01*
X113706845Y-120423214D01*
X113516369Y-120423214D01*
X113421130Y-120470833D01*
X113373511Y-120566071D01*
X113373511Y-120661309D01*
X113849702Y-120756547D01*
X111611607Y-120994642D02*
X111659226Y-121042261D01*
X111802083Y-121089880D01*
X111897321Y-121089880D01*
X112040178Y-121042261D01*
X112135416Y-120947023D01*
X112183035Y-120851785D01*
X112230654Y-120661309D01*
X112230654Y-120518452D01*
X112183035Y-120327976D01*
X112135416Y-120232738D01*
X112040178Y-120137500D01*
X111897321Y-120089880D01*
X111802083Y-120089880D01*
X111659226Y-120137500D01*
X111611607Y-120185119D01*
X111183035Y-121089880D02*
X111183035Y-120089880D01*
X110754464Y-121089880D02*
X110754464Y-120566071D01*
X110802083Y-120470833D01*
X110897321Y-120423214D01*
X111040178Y-120423214D01*
X111135416Y-120470833D01*
X111183035Y-120518452D01*
X109897321Y-121042261D02*
X109992559Y-121089880D01*
X110183035Y-121089880D01*
X110278273Y-121042261D01*
X110325892Y-120947023D01*
X110325892Y-120566071D01*
X110278273Y-120470833D01*
X110183035Y-120423214D01*
X109992559Y-120423214D01*
X109897321Y-120470833D01*
X109849702Y-120566071D01*
X109849702Y-120661309D01*
X110325892Y-120756547D01*
X109421130Y-121089880D02*
X109421130Y-120423214D01*
X109421130Y-120613690D02*
X109373511Y-120518452D01*
X109325892Y-120470833D01*
X109230654Y-120423214D01*
X109135416Y-120423214D01*
X108802083Y-121089880D02*
X108802083Y-120423214D01*
X108802083Y-120613690D02*
X108754464Y-120518452D01*
X108706845Y-120470833D01*
X108611607Y-120423214D01*
X108516369Y-120423214D01*
X108278273Y-120423214D02*
X108040178Y-121089880D01*
X107802083Y-120423214D02*
X108040178Y-121089880D01*
X108135416Y-121327976D01*
X108183035Y-121375595D01*
X108278273Y-121423214D01*
X106754464Y-120423214D02*
X106516369Y-121089880D01*
X106278273Y-120423214D01*
X105944940Y-120185119D02*
X105897321Y-120137500D01*
X105802083Y-120089880D01*
X105563988Y-120089880D01*
X105468750Y-120137500D01*
X105421130Y-120185119D01*
X105373511Y-120280357D01*
X105373511Y-120375595D01*
X105421130Y-120518452D01*
X105992559Y-121089880D01*
X105373511Y-121089880D01*
X104944940Y-120994642D02*
X104897321Y-121042261D01*
X104944940Y-121089880D01*
X104992559Y-121042261D01*
X104944940Y-120994642D01*
X104944940Y-121089880D01*
X103944940Y-121089880D02*
X104516369Y-121089880D01*
X104230654Y-121089880D02*
X104230654Y-120089880D01*
X104325892Y-120232738D01*
X104421130Y-120327976D01*
X104516369Y-120375595D01*
X117230654Y-122714880D02*
X117230654Y-121714880D01*
X116849702Y-121714880D01*
X116754464Y-121762500D01*
X116706845Y-121810119D01*
X116659226Y-121905357D01*
X116659226Y-122048214D01*
X116706845Y-122143452D01*
X116754464Y-122191071D01*
X116849702Y-122238690D01*
X117230654Y-122238690D01*
X115659226Y-122619642D02*
X115706845Y-122667261D01*
X115849702Y-122714880D01*
X115944940Y-122714880D01*
X116087797Y-122667261D01*
X116183035Y-122572023D01*
X116230654Y-122476785D01*
X116278273Y-122286309D01*
X116278273Y-122143452D01*
X116230654Y-121952976D01*
X116183035Y-121857738D01*
X116087797Y-121762500D01*
X115944940Y-121714880D01*
X115849702Y-121714880D01*
X115706845Y-121762500D01*
X115659226Y-121810119D01*
X114897321Y-122191071D02*
X114754464Y-122238690D01*
X114706845Y-122286309D01*
X114659226Y-122381547D01*
X114659226Y-122524404D01*
X114706845Y-122619642D01*
X114754464Y-122667261D01*
X114849702Y-122714880D01*
X115230654Y-122714880D01*
X115230654Y-121714880D01*
X114897321Y-121714880D01*
X114802083Y-121762500D01*
X114754464Y-121810119D01*
X114706845Y-121905357D01*
X114706845Y-122000595D01*
X114754464Y-122095833D01*
X114802083Y-122143452D01*
X114897321Y-122191071D01*
X115230654Y-122191071D01*
X113040178Y-122714880D02*
X113040178Y-121714880D01*
X113040178Y-122667261D02*
X113135416Y-122714880D01*
X113325892Y-122714880D01*
X113421130Y-122667261D01*
X113468750Y-122619642D01*
X113516369Y-122524404D01*
X113516369Y-122238690D01*
X113468750Y-122143452D01*
X113421130Y-122095833D01*
X113325892Y-122048214D01*
X113135416Y-122048214D01*
X113040178Y-122095833D01*
X112183035Y-122667261D02*
X112278273Y-122714880D01*
X112468750Y-122714880D01*
X112563988Y-122667261D01*
X112611607Y-122572023D01*
X112611607Y-122191071D01*
X112563988Y-122095833D01*
X112468750Y-122048214D01*
X112278273Y-122048214D01*
X112183035Y-122095833D01*
X112135416Y-122191071D01*
X112135416Y-122286309D01*
X112611607Y-122381547D01*
X111754464Y-122667261D02*
X111659226Y-122714880D01*
X111468750Y-122714880D01*
X111373511Y-122667261D01*
X111325892Y-122572023D01*
X111325892Y-122524404D01*
X111373511Y-122429166D01*
X111468750Y-122381547D01*
X111611607Y-122381547D01*
X111706845Y-122333928D01*
X111754464Y-122238690D01*
X111754464Y-122191071D01*
X111706845Y-122095833D01*
X111611607Y-122048214D01*
X111468750Y-122048214D01*
X111373511Y-122095833D01*
X110897321Y-122714880D02*
X110897321Y-122048214D01*
X110897321Y-121714880D02*
X110944940Y-121762500D01*
X110897321Y-121810119D01*
X110849702Y-121762500D01*
X110897321Y-121714880D01*
X110897321Y-121810119D01*
X109992559Y-122048214D02*
X109992559Y-122857738D01*
X110040178Y-122952976D01*
X110087797Y-123000595D01*
X110183035Y-123048214D01*
X110325892Y-123048214D01*
X110421130Y-123000595D01*
X109992559Y-122667261D02*
X110087797Y-122714880D01*
X110278273Y-122714880D01*
X110373511Y-122667261D01*
X110421130Y-122619642D01*
X110468750Y-122524404D01*
X110468750Y-122238690D01*
X110421130Y-122143452D01*
X110373511Y-122095833D01*
X110278273Y-122048214D01*
X110087797Y-122048214D01*
X109992559Y-122095833D01*
X109516369Y-122048214D02*
X109516369Y-122714880D01*
X109516369Y-122143452D02*
X109468750Y-122095833D01*
X109373511Y-122048214D01*
X109230654Y-122048214D01*
X109135416Y-122095833D01*
X109087797Y-122191071D01*
X109087797Y-122714880D01*
X108230654Y-122667261D02*
X108325892Y-122714880D01*
X108516369Y-122714880D01*
X108611607Y-122667261D01*
X108659226Y-122572023D01*
X108659226Y-122191071D01*
X108611607Y-122095833D01*
X108516369Y-122048214D01*
X108325892Y-122048214D01*
X108230654Y-122095833D01*
X108183035Y-122191071D01*
X108183035Y-122286309D01*
X108659226Y-122381547D01*
X107325892Y-122714880D02*
X107325892Y-121714880D01*
X107325892Y-122667261D02*
X107421130Y-122714880D01*
X107611607Y-122714880D01*
X107706845Y-122667261D01*
X107754464Y-122619642D01*
X107802083Y-122524404D01*
X107802083Y-122238690D01*
X107754464Y-122143452D01*
X107706845Y-122095833D01*
X107611607Y-122048214D01*
X107421130Y-122048214D01*
X107325892Y-122095833D01*
X106087797Y-122714880D02*
X106087797Y-121714880D01*
X106087797Y-122095833D02*
X105992559Y-122048214D01*
X105802083Y-122048214D01*
X105706845Y-122095833D01*
X105659226Y-122143452D01*
X105611607Y-122238690D01*
X105611607Y-122524404D01*
X105659226Y-122619642D01*
X105706845Y-122667261D01*
X105802083Y-122714880D01*
X105992559Y-122714880D01*
X106087797Y-122667261D01*
X105278273Y-122048214D02*
X105040178Y-122714880D01*
X104802083Y-122048214D02*
X105040178Y-122714880D01*
X105135416Y-122952976D01*
X105183035Y-123000595D01*
X105278273Y-123048214D01*
X103802083Y-122048214D02*
X103421130Y-122048214D01*
X103659226Y-122714880D02*
X103659226Y-121857738D01*
X103611607Y-121762500D01*
X103516369Y-121714880D01*
X103421130Y-121714880D01*
X102944940Y-122714880D02*
X103040178Y-122667261D01*
X103087797Y-122619642D01*
X103135416Y-122524404D01*
X103135416Y-122238690D01*
X103087797Y-122143452D01*
X103040178Y-122095833D01*
X102944940Y-122048214D01*
X102802083Y-122048214D01*
X102706845Y-122095833D01*
X102659226Y-122143452D01*
X102611607Y-122238690D01*
X102611607Y-122524404D01*
X102659226Y-122619642D01*
X102706845Y-122667261D01*
X102802083Y-122714880D01*
X102944940Y-122714880D01*
X102040178Y-122714880D02*
X102135416Y-122667261D01*
X102183035Y-122619642D01*
X102230654Y-122524404D01*
X102230654Y-122238690D01*
X102183035Y-122143452D01*
X102135416Y-122095833D01*
X102040178Y-122048214D01*
X101897321Y-122048214D01*
X101802083Y-122095833D01*
X101754464Y-122143452D01*
X101706845Y-122238690D01*
X101706845Y-122524404D01*
X101754464Y-122619642D01*
X101802083Y-122667261D01*
X101897321Y-122714880D01*
X102040178Y-122714880D01*
X101325892Y-122667261D02*
X101230654Y-122714880D01*
X101040178Y-122714880D01*
X100944940Y-122667261D01*
X100897321Y-122572023D01*
X100897321Y-122524404D01*
X100944940Y-122429166D01*
X101040178Y-122381547D01*
X101183035Y-122381547D01*
X101278273Y-122333928D01*
X101325892Y-122238690D01*
X101325892Y-122191071D01*
X101278273Y-122095833D01*
X101183035Y-122048214D01*
X101040178Y-122048214D01*
X100944940Y-122095833D01*
X100611607Y-122048214D02*
X100230654Y-122048214D01*
X100468750Y-121714880D02*
X100468750Y-122572023D01*
X100421130Y-122667261D01*
X100325892Y-122714880D01*
X100230654Y-122714880D01*
X99468750Y-122714880D02*
X99468750Y-122191071D01*
X99516369Y-122095833D01*
X99611607Y-122048214D01*
X99802083Y-122048214D01*
X99897321Y-122095833D01*
X99468750Y-122667261D02*
X99563988Y-122714880D01*
X99802083Y-122714880D01*
X99897321Y-122667261D01*
X99944940Y-122572023D01*
X99944940Y-122476785D01*
X99897321Y-122381547D01*
X99802083Y-122333928D01*
X99563988Y-122333928D01*
X99468750Y-122286309D01*
X98992559Y-122048214D02*
X98992559Y-122714880D01*
X98992559Y-122143452D02*
X98944940Y-122095833D01*
X98849702Y-122048214D01*
X98706845Y-122048214D01*
X98611607Y-122095833D01*
X98563988Y-122191071D01*
X98563988Y-122714880D01*
D11*
X177500000Y-140397114D03*
X182000000Y-132602886D03*
D12*
G36*
X181698280Y-145765479D02*
G01*
X179619820Y-144565479D01*
X180969820Y-142227211D01*
X183048280Y-143427211D01*
X181698280Y-145765479D01*
G37*
D13*
X182290000Y-132100591D03*
X177210000Y-140899409D03*
D14*
X179750000Y-136500000D03*
D15*
X182879409Y-141239705D03*
X180044705Y-141069557D03*
X185419409Y-136840295D03*
X183854705Y-134470443D03*
D12*
G36*
X185848576Y-133496956D02*
G01*
X183770116Y-132296956D01*
X185120116Y-129958688D01*
X187198576Y-131158688D01*
X185848576Y-133496956D01*
G37*
D11*
X65500000Y-77125000D03*
X74500000Y-77125000D03*
D16*
X64300000Y-82245000D03*
D13*
X75080000Y-77125000D03*
X64920000Y-77125000D03*
D14*
X70000000Y-77125000D03*
D15*
X67460000Y-82205000D03*
X66190000Y-79665001D03*
X72540000Y-82205000D03*
X73810000Y-79665000D03*
D16*
X77000000Y-79705000D03*
D11*
X132000000Y-130000000D03*
X141000000Y-130000000D03*
D16*
X130800000Y-135120000D03*
D13*
X141580000Y-130000000D03*
X131420000Y-130000000D03*
D14*
X136500000Y-130000000D03*
D15*
X133960000Y-135080000D03*
X132690000Y-132540001D03*
X139040000Y-135080000D03*
X140310000Y-132540000D03*
D16*
X143500000Y-132580000D03*
D11*
X160500000Y-112750000D03*
X169500000Y-112750000D03*
D16*
X159300000Y-117870000D03*
D13*
X170080000Y-112750000D03*
X159920000Y-112750000D03*
D14*
X165000000Y-112750000D03*
D15*
X162460000Y-117830000D03*
X161190000Y-115290001D03*
X167540000Y-117830000D03*
X168810000Y-115290000D03*
D16*
X172000000Y-115330000D03*
D11*
X103500000Y-110375000D03*
X112500000Y-110375000D03*
D16*
X102300000Y-115495000D03*
D13*
X113080000Y-110375000D03*
X102920000Y-110375000D03*
D14*
X108000000Y-110375000D03*
D15*
X105460000Y-115455000D03*
X104190000Y-112915001D03*
X110540000Y-115455000D03*
X111810000Y-112915000D03*
D16*
X115000000Y-112955000D03*
D11*
X84500000Y-115125000D03*
X93500000Y-115125000D03*
D16*
X83300000Y-120245000D03*
D13*
X94080000Y-115125000D03*
X83920000Y-115125000D03*
D14*
X89000000Y-115125000D03*
D15*
X86460000Y-120205000D03*
X85190000Y-117665001D03*
X91540000Y-120205000D03*
X92810000Y-117665000D03*
D16*
X96000000Y-117705000D03*
D11*
X65500000Y-115125000D03*
X74500000Y-115125000D03*
D16*
X64300000Y-120245000D03*
D13*
X75080000Y-115125000D03*
X64920000Y-115125000D03*
D14*
X70000000Y-115125000D03*
D15*
X67460000Y-120205000D03*
X66190000Y-117665001D03*
X72540000Y-120205000D03*
X73810000Y-117665000D03*
D16*
X77000000Y-117705000D03*
D11*
X160500000Y-93750000D03*
X169500000Y-93750000D03*
D16*
X159300000Y-98870000D03*
D13*
X170080000Y-93750000D03*
X159920000Y-93750000D03*
D14*
X165000000Y-93750000D03*
D15*
X162460000Y-98830000D03*
X161190000Y-96290001D03*
X167540000Y-98830000D03*
X168810000Y-96290000D03*
D16*
X172000000Y-96330000D03*
D11*
X141500000Y-91375000D03*
X150500000Y-91375000D03*
D16*
X140300000Y-96495000D03*
D13*
X151080000Y-91375000D03*
X140920000Y-91375000D03*
D14*
X146000000Y-91375000D03*
D15*
X143460000Y-96455000D03*
X142190000Y-93915001D03*
X148540000Y-96455000D03*
X149810000Y-93915000D03*
D16*
X153000000Y-93955000D03*
D11*
X122500000Y-89000000D03*
X131500000Y-89000000D03*
D16*
X121300000Y-94120000D03*
D13*
X132080000Y-89000000D03*
X121920000Y-89000000D03*
D14*
X127000000Y-89000000D03*
D15*
X124460000Y-94080000D03*
X123190000Y-91540001D03*
X129540000Y-94080000D03*
X130810000Y-91540000D03*
D16*
X134000000Y-91580000D03*
D11*
X103500000Y-91375000D03*
X112500000Y-91375000D03*
D16*
X102300000Y-96495000D03*
D13*
X113080000Y-91375000D03*
X102920000Y-91375000D03*
D14*
X108000000Y-91375000D03*
D15*
X105460000Y-96455000D03*
X104190000Y-93915001D03*
X110540000Y-96455000D03*
X111810000Y-93915000D03*
D16*
X115000000Y-93955000D03*
D11*
X84500000Y-96125000D03*
X93500000Y-96125000D03*
D16*
X83300000Y-101245000D03*
D13*
X94080000Y-96125000D03*
X83920000Y-96125000D03*
D14*
X89000000Y-96125000D03*
D15*
X86460000Y-101205000D03*
X85190000Y-98665001D03*
X91540000Y-101205000D03*
X92810000Y-98665000D03*
D16*
X96000000Y-98705000D03*
D11*
X65500000Y-96125000D03*
X74500000Y-96125000D03*
D16*
X64300000Y-101245000D03*
D13*
X75080000Y-96125000D03*
X64920000Y-96125000D03*
D14*
X70000000Y-96125000D03*
D15*
X67460000Y-101205000D03*
X66190000Y-98665001D03*
X72540000Y-101205000D03*
X73810000Y-98665000D03*
D16*
X77000000Y-98705000D03*
D11*
X160500000Y-74750000D03*
X169500000Y-74750000D03*
D16*
X159300000Y-79870000D03*
D13*
X170080000Y-74750000D03*
X159920000Y-74750000D03*
D14*
X165000000Y-74750000D03*
D15*
X162460000Y-79830000D03*
X161190000Y-77290001D03*
X167540000Y-79830000D03*
X168810000Y-77290000D03*
D16*
X172000000Y-77330000D03*
D11*
X141500000Y-72375000D03*
X150500000Y-72375000D03*
D16*
X140300000Y-77495000D03*
D13*
X151080000Y-72375000D03*
X140920000Y-72375000D03*
D14*
X146000000Y-72375000D03*
D15*
X143460000Y-77455000D03*
X142190000Y-74915001D03*
X148540000Y-77455000D03*
X149810000Y-74915000D03*
D16*
X153000000Y-74955000D03*
D11*
X103500000Y-72375000D03*
X112500000Y-72375000D03*
D16*
X102300000Y-77495000D03*
D13*
X113080000Y-72375000D03*
X102920000Y-72375000D03*
D14*
X108000000Y-72375000D03*
D15*
X105460000Y-77455000D03*
X104190000Y-74915001D03*
X110540000Y-77455000D03*
X111810000Y-74915000D03*
D16*
X115000000Y-74955000D03*
D11*
X84500000Y-77125000D03*
X93500000Y-77125000D03*
D16*
X83300000Y-82245000D03*
D13*
X94080000Y-77125000D03*
X83920000Y-77125000D03*
D14*
X89000000Y-77125000D03*
D15*
X86460000Y-82205000D03*
X85190000Y-79665001D03*
X91540000Y-82205000D03*
X92810000Y-79665000D03*
D16*
X96000000Y-79705000D03*
D11*
X141500000Y-110375000D03*
X150500000Y-110375000D03*
D16*
X140300000Y-115495000D03*
D13*
X151080000Y-110375000D03*
X140920000Y-110375000D03*
D14*
X146000000Y-110375000D03*
D15*
X143460000Y-115455000D03*
X142190000Y-112915001D03*
X148540000Y-115455000D03*
X149810000Y-112915000D03*
D16*
X153000000Y-112955000D03*
D11*
X153153334Y-131585314D03*
X161846666Y-133914686D03*
D12*
G36*
X149054486Y-137029977D02*
G01*
X149675652Y-134711755D01*
X152283652Y-135410567D01*
X151662486Y-137728789D01*
X149054486Y-137029977D01*
G37*
D13*
X162406903Y-134064801D03*
X152593097Y-131435199D03*
D14*
X157500000Y-132750000D03*
D15*
X153731748Y-136999503D03*
X153162422Y-134217352D03*
X158638651Y-138314304D03*
X160522777Y-136189552D03*
D12*
G36*
X161979145Y-137863527D02*
G01*
X162600311Y-135545305D01*
X165208311Y-136244117D01*
X164587145Y-138562339D01*
X161979145Y-137863527D01*
G37*
D11*
X122500000Y-70000000D03*
X131500000Y-70000000D03*
D16*
X121300000Y-75120000D03*
D13*
X132080000Y-70000000D03*
X121920000Y-70000000D03*
D14*
X127000000Y-70000000D03*
D15*
X124460000Y-75080000D03*
X123190000Y-72540001D03*
X129540000Y-75080000D03*
X130810000Y-72540000D03*
D16*
X134000000Y-72580000D03*
D11*
X122500000Y-108000000D03*
X131500000Y-108000000D03*
D16*
X121300000Y-113120000D03*
D13*
X132080000Y-108000000D03*
X121920000Y-108000000D03*
D14*
X127000000Y-108000000D03*
D15*
X124460000Y-113080000D03*
X123190000Y-110540001D03*
X129540000Y-113080000D03*
X130810000Y-110540000D03*
D16*
X134000000Y-110580000D03*
D17*
X186200000Y-114950000D03*
X193200000Y-114950000D03*
D18*
X184400000Y-112850000D03*
X182900000Y-117050000D03*
X191400000Y-112850000D03*
X188400000Y-112850000D03*
D17*
X193200000Y-116700000D03*
X186200000Y-116700000D03*
D18*
X191400000Y-118800000D03*
X188400000Y-118800000D03*
X184400000Y-118800000D03*
X182900000Y-114600000D03*
D19*
X162800000Y-122375000D03*
X162800000Y-120625000D03*
X167200000Y-120625000D03*
X167200000Y-122375000D03*
X167200000Y-82625000D03*
X167200000Y-84375000D03*
X162800000Y-84375000D03*
X162800000Y-82625000D03*
X129200000Y-77925000D03*
X129200000Y-79675000D03*
X124800000Y-79675000D03*
X124800000Y-77925000D03*
X91200000Y-85025000D03*
X91200000Y-86775000D03*
X86800000Y-86775000D03*
X86800000Y-85025000D03*
X86800000Y-105775000D03*
X86800000Y-104025000D03*
X91200000Y-104025000D03*
X91200000Y-105775000D03*
X124800000Y-117675000D03*
X124800000Y-115925000D03*
X129200000Y-115925000D03*
X129200000Y-117675000D03*
D12*
G36*
X175336010Y-130018014D02*
G01*
X176548446Y-130718014D01*
X175548446Y-132450064D01*
X174336010Y-131750064D01*
X175336010Y-130018014D01*
G37*
G36*
X176851554Y-130893014D02*
G01*
X178063990Y-131593014D01*
X177063990Y-133325064D01*
X175851554Y-132625064D01*
X176851554Y-130893014D01*
G37*
G36*
X174451554Y-135049936D02*
G01*
X175663990Y-135749936D01*
X174663990Y-137481986D01*
X173451554Y-136781986D01*
X174451554Y-135049936D01*
G37*
G36*
X172936010Y-134174936D02*
G01*
X174148446Y-134874936D01*
X173148446Y-136606986D01*
X171936010Y-135906986D01*
X172936010Y-134174936D01*
G37*
G36*
X155308212Y-128141348D02*
G01*
X155670559Y-126789052D01*
X157602410Y-127306690D01*
X157240063Y-128658986D01*
X155308212Y-128141348D01*
G37*
G36*
X155761146Y-126450978D02*
G01*
X156123493Y-125098682D01*
X158055344Y-125616320D01*
X157692997Y-126968616D01*
X155761146Y-126450978D01*
G37*
G36*
X160397590Y-127693310D02*
G01*
X160759937Y-126341014D01*
X162691788Y-126858652D01*
X162329441Y-128210948D01*
X160397590Y-127693310D01*
G37*
G36*
X159944656Y-129383680D02*
G01*
X160307003Y-128031384D01*
X162238854Y-128549022D01*
X161876507Y-129901318D01*
X159944656Y-129383680D01*
G37*
D20*
X134100000Y-125375000D03*
X134100000Y-123625000D03*
X138900000Y-123625000D03*
X138900000Y-125375000D03*
X162600000Y-108125000D03*
X162600000Y-106375000D03*
X167400000Y-106375000D03*
X167400000Y-108125000D03*
X143600000Y-105750000D03*
X143600000Y-104000000D03*
X148400000Y-104000000D03*
X148400000Y-105750000D03*
X124600000Y-103375000D03*
X124600000Y-101625000D03*
X129400000Y-101625000D03*
X129400000Y-103375000D03*
X105600000Y-105750000D03*
X105600000Y-104000000D03*
X110400000Y-104000000D03*
X110400000Y-105750000D03*
X86600000Y-110500000D03*
X86600000Y-108750000D03*
X91400000Y-108750000D03*
X91400000Y-110500000D03*
X67600000Y-110500000D03*
X67600000Y-108750000D03*
X72400000Y-108750000D03*
X72400000Y-110500000D03*
X162600000Y-89125000D03*
X162600000Y-87375000D03*
X167400000Y-87375000D03*
X167400000Y-89125000D03*
X143600000Y-86750000D03*
X143600000Y-85000000D03*
X148400000Y-85000000D03*
X148400000Y-86750000D03*
X124600000Y-84375000D03*
X124600000Y-82625000D03*
X129400000Y-82625000D03*
X129400000Y-84375000D03*
X105600000Y-86750000D03*
X105600000Y-85000000D03*
X110400000Y-85000000D03*
X110400000Y-86750000D03*
X86600000Y-91500000D03*
X86600000Y-89750000D03*
X91400000Y-89750000D03*
X91400000Y-91500000D03*
X67600000Y-91500000D03*
X67600000Y-89750000D03*
X72400000Y-89750000D03*
X72400000Y-91500000D03*
X162600000Y-70125000D03*
X162600000Y-68375000D03*
X167400000Y-68375000D03*
X167400000Y-70125000D03*
X143600000Y-67750000D03*
X143600000Y-66000000D03*
X148400000Y-66000000D03*
X148400000Y-67750000D03*
X124600000Y-65375000D03*
X124600000Y-63625000D03*
X129400000Y-63625000D03*
X129400000Y-65375000D03*
X105600000Y-67750000D03*
X105600000Y-66000000D03*
X110400000Y-66000000D03*
X110400000Y-67750000D03*
X86600000Y-72500000D03*
X86600000Y-70750000D03*
X91400000Y-70750000D03*
X91400000Y-72500000D03*
X67600000Y-72500000D03*
X67600000Y-70750000D03*
X72400000Y-70750000D03*
X72400000Y-72500000D03*
D21*
X192100000Y-73042000D03*
X192100000Y-75582000D03*
X192100000Y-78122000D03*
X192100000Y-80662000D03*
X192100000Y-83202000D03*
X192100000Y-85742000D03*
X192100000Y-88282000D03*
X192100000Y-90822000D03*
X192100000Y-93362000D03*
X192100000Y-95902000D03*
X192100000Y-98442000D03*
X192100000Y-100982000D03*
X176860000Y-100982000D03*
X176860000Y-98442000D03*
X176860000Y-95902000D03*
X176860000Y-93362000D03*
X176860000Y-90822000D03*
X176860000Y-88282000D03*
X176860000Y-85742000D03*
X176860000Y-83202000D03*
X176860000Y-80662000D03*
X176860000Y-78122000D03*
X176860000Y-75582000D03*
X176860000Y-73042000D03*
X193406400Y-71772000D03*
X193406400Y-74312000D03*
X193406400Y-76852000D03*
X193406400Y-79392000D03*
X193406400Y-81932000D03*
X193406400Y-84472000D03*
X193406400Y-87012000D03*
X193406400Y-89552000D03*
X193406400Y-92092000D03*
X193406400Y-94632000D03*
X193406400Y-97172000D03*
X193406400Y-99712000D03*
X178186400Y-99712000D03*
X178186400Y-97172000D03*
X178186400Y-94632000D03*
X178186400Y-92092000D03*
X178186400Y-89552000D03*
X178186400Y-87012000D03*
X178186400Y-84472000D03*
X178186400Y-81932000D03*
X178186400Y-79392000D03*
X178186400Y-76852000D03*
X178186400Y-74312000D03*
X178186400Y-71772000D03*
D22*
X154000000Y-68600000D03*
X154000000Y-72150000D03*
X62000000Y-73350000D03*
X62000000Y-76900000D03*
X97000000Y-73350000D03*
X97000000Y-76900000D03*
X116000000Y-68600000D03*
X116000000Y-72150000D03*
X135000000Y-66225000D03*
X135000000Y-69775000D03*
X157000000Y-68600000D03*
X157000000Y-72150000D03*
X62000000Y-92350000D03*
X62000000Y-95900000D03*
X97000000Y-92350000D03*
X97000000Y-95900000D03*
X116000000Y-87600000D03*
X116000000Y-91150000D03*
X135000000Y-85225000D03*
X135000000Y-88775000D03*
X154000000Y-87600000D03*
X154000000Y-91150000D03*
X157000000Y-87600000D03*
X157000000Y-91150000D03*
X62000000Y-111350000D03*
X62000000Y-114900000D03*
X97000000Y-111350000D03*
X97000000Y-114900000D03*
X116000000Y-106600000D03*
X116000000Y-110150000D03*
X135000000Y-104225000D03*
X135000000Y-107775000D03*
X157000000Y-106600000D03*
X157000000Y-110150000D03*
X128500000Y-126225000D03*
X128500000Y-129775000D03*
X144500000Y-125975000D03*
X144500000Y-129525000D03*
X147500000Y-125975000D03*
X147500000Y-129525000D03*
X154000000Y-106600000D03*
X154000000Y-110150000D03*
D23*
X189540000Y-108000000D03*
X184460000Y-108000000D03*
X189540000Y-110300000D03*
X184460000Y-110300000D03*
D24*
X188875000Y-100749620D03*
X188875000Y-101750380D03*
X186375000Y-100749620D03*
X186375000Y-101750380D03*
X183875000Y-100749620D03*
X183875000Y-101750380D03*
X181375000Y-100749620D03*
X181375000Y-101750380D03*
D25*
X174000000Y-102820000D03*
X174000000Y-105360000D03*
X174000000Y-107900000D03*
D23*
X181300000Y-105300000D03*
X183840000Y-105300000D03*
X186380000Y-105300000D03*
X188920000Y-105300000D03*
D26*
X79500000Y-105500000D03*
D27*
X177750000Y-115750000D03*
X192250000Y-124250000D03*
D26*
X79500000Y-86750000D03*
X98500000Y-86750000D03*
X98500000Y-105750000D03*
X155500000Y-83000000D03*
X122750000Y-122750000D03*
X169250000Y-130500000D03*
D23*
X181000000Y-108000000D03*
X181000000Y-110300000D03*
D28*
X192900000Y-103750000D03*
X192900000Y-110250000D03*
M02*
