M48
; DRILL file {KiCad (5.1.6)-1} date 05/17/20 06:20:42
; FORMAT={-:-/ absolute / inch / decimal}
; #@! TF.CreationDate,2020-05-17T06:20:42+03:00
; #@! TF.GenerationSoftware,Kicad,Pcbnew,(5.1.6)-1
FMAT,2
INCH
T1C0.0157
T2C0.0320
T3C0.0394
T4C0.0512
T5C0.0866
T6C0.1614
T7C0.0472
T8C0.0669
T9C0.0748
T10C0.1181
T11C0.1614
%
G90
G05
T1
X2.4409Y-2.9449
X2.4409Y-2.9783
X2.4409Y-3.6929
X2.4409Y-3.7264
X2.4409Y-4.439
X2.4409Y-4.4744
X2.4783Y-3.3091
X2.4783Y-4.065
X2.4783Y-4.8071
X2.5157Y-3.6437
X2.5157Y-4.3917
X2.622Y-2.8976
X2.626Y-3.6457
X2.6299Y-4.3976
X2.6535Y-2.9055
X2.6575Y-3.6535
X2.6606Y-4.2264
X2.661Y-2.7303
X2.661Y-3.4791
X2.6654Y-4.3976
X2.8425Y-3.7126
X2.8583Y-2.7244
X2.8583Y-3.4843
X2.8583Y-4.2283
X2.8878Y-3.3228
X2.8957Y-4.813
X2.8996Y-4.0748
X2.9094Y-3.4331
X2.9094Y-3.5512
X2.9134Y-4.2835
X2.9173Y-2.8071
X2.9173Y-4.1772
X3.0276Y-2.9685
X3.1732Y-3.8681
X3.1772Y-3.8268
X3.1929Y-4.5551
X3.2303Y-4.8071
X3.2323Y-4.563
X3.2618Y-4.0807
X3.2638Y-3.7244
X3.2795Y-4.4646
X3.2874Y-3.311
X3.2874Y-3.3543
X3.2874Y-3.4291
X3.2913Y-4.0571
X3.3366Y-4.0551
X3.3386Y-3.4921
X3.3465Y-4.1299
X3.3504Y-3.3819
X3.3543Y-4.3504
X3.3583Y-4.315
X3.3701Y-3.6457
X3.378Y-2.8976
X3.4016Y-3.6496
X3.4091Y-2.7374
X3.4173Y-2.9016
X3.4833Y-3.3809
X3.4911Y-4.1319
X3.5207Y-3.3799
X3.5256Y-4.1309
X3.5984Y-4.2402
X3.6063Y-2.7362
X3.6102Y-3.4843
X3.6575Y-4.1339
X3.6614Y-3.5354
X3.6654Y-2.7992
X3.6693Y-3.4252
X3.6693Y-4.2756
X3.6831Y-4.813
X3.7067Y-3.3425
X3.748Y-4.2402
X3.7677Y-2.9331
X3.7717Y-3.7087
X3.7992Y-3.2126
X3.8169Y-3.689
X3.8189Y-2.9429
X3.8189Y-4.437
X3.8327Y-3.2165
X3.8583Y-3.8307
X3.8583Y-4.5768
X3.8602Y-3.0728
X3.8602Y-3.1516
X3.872Y-3.9626
X3.8858Y-4.3583
X3.8917Y-3.1142
X3.8969Y-3.6823
X3.9016Y-2.9803
X3.9055Y-2.878
X3.9055Y-4.3268
X3.9075Y-4.4626
X3.9134Y-4.3898
X3.9409Y-2.8366
X3.9508Y-4.5169
X3.9598Y-3.0205
X3.9622Y-3.772
X3.9807Y-3.6248
X3.9823Y-4.374
X4.0213Y-3.5335
X4.037Y-3.1161
X4.0382Y-3.8665
X4.0382Y-4.6157
X4.0978Y-4.2698
X4.1024Y-4.1339
X4.1028Y-2.5531
X4.1063Y-3.3819
X4.1181Y-2.7126
X4.1197Y-4.2925
X4.1496Y-2.7165
X4.1496Y-3.4646
X4.1575Y-4.2087
X4.1579Y-3.3008
X4.1579Y-4.0508
X4.3543Y-2.5512
X4.3583Y-3.2992
X4.3622Y-4.0512
X4.3976Y-2.5591
X4.4094Y-3.3583
X4.4094Y-4.0906
X4.4409Y-3.9606
X4.4449Y-3.2165
X4.4843Y-2.5512
X4.5157Y-2.7559
X4.5197Y-3.5079
X4.5266Y-3.9892
X4.5441Y-3.8059
X4.5465Y-3.0622
X4.5571Y-2.7539
X4.5669Y-3.5059
X4.5669Y-4.252
X4.598Y-4.3976
X4.6134Y-2.8941
X4.6244Y-3.6465
X4.6417Y-4.185
X4.685Y-3.437
X4.685Y-4.185
X4.6969Y-3.878
X4.7008Y-3.6752
X4.7028Y-2.9311
X4.7055Y-4.4213
X4.7232Y-4.2791
X4.7287Y-3.5366
X4.7598Y-3.878
X4.7638Y-3.437
X4.7638Y-4.185
X4.7795Y-2.5433
X4.7854Y-3.026
X4.787Y-4.5189
X4.7925Y-3.7752
X4.8386Y-4.0709
X4.8425Y-3.0906
X4.8425Y-3.2126
X4.8465Y-4.0354
X4.8504Y-2.5433
X4.8504Y-3.2835
X4.8514Y-4.564
X4.8937Y-2.622
X4.8976Y-3.3661
X4.9291Y-3.8937
X4.9774Y-3.1014
X4.9813Y-4.6014
X5.0157Y-3.1053
X5.0217Y-4.6004
X5.026Y-5.1819
X5.0591Y-5.0236
X5.0799Y-5.3646
X5.1063Y-2.4606
X5.1067Y-5.022
X5.1142Y-3.2087
X5.1496Y-4.0354
X5.1535Y-3.2795
X5.1575Y-2.5039
X5.1575Y-4.5984
X5.1654Y-3.0984
X5.1665Y-5.3933
X5.1772Y-4.8071
X5.185Y-4.0
X5.2008Y-3.0984
X5.2008Y-4.6024
X5.2126Y-4.9055
X5.2283Y-4.7598
X5.2465Y-4.6811
X5.2638Y-2.6535
X5.2638Y-3.1181
X5.2638Y-3.4094
X5.2638Y-4.1535
X5.2717Y-4.7087
X5.2921Y-3.7146
X5.2969Y-2.9504
X5.3012Y-4.4622
X5.3031Y-4.6811
X5.315Y-2.6614
X5.315Y-3.4094
X5.315Y-4.1575
X5.3563Y-2.8004
X5.3654Y-4.2917
X5.3681Y-3.5465
X5.4094Y-4.7598
X5.4291Y-4.2677
X5.4409Y-3.5236
X5.4449Y-3.9173
X5.4449Y-3.9606
X5.4496Y-4.5217
X5.4583Y-3.7732
X5.4638Y-3.1087
X5.4724Y-3.6268
X5.476Y-4.3736
X5.4803Y-4.815
X5.5Y-3.9606
X5.5039Y-3.9213
X5.5079Y-3.5236
X5.5118Y-4.2677
X5.5276Y-4.8701
X5.5343Y-3.8654
X5.5362Y-4.6134
X5.5406Y-3.124
X5.5953Y-2.5531
X5.5984Y-3.3858
X5.6024Y-2.6378
X5.6024Y-4.1299
X5.6024Y-4.8307
X5.6417Y-3.4646
X5.6457Y-2.7165
X5.6457Y-4.2126
X5.6528Y-3.2992
X5.6531Y-4.0492
X5.6886Y-5.1535
X5.689Y-5.0138
X5.8063Y-5.1559
X5.8071Y-5.0138
X5.8504Y-2.5551
X5.8504Y-3.2992
X5.8504Y-4.0433
X5.9016Y-2.6102
X5.9016Y-3.3543
X5.9016Y-5.0354
X5.9055Y-4.0906
X5.9094Y-3.2126
X5.9252Y-3.9843
X5.9315Y-5.1815
X5.9646Y-2.6299
X5.9646Y-5.0354
X6.0118Y-2.7362
X6.0157Y-3.5039
X6.0157Y-4.248
X6.0378Y-3.0516
X6.0449Y-3.8004
X6.0472Y-4.5472
X6.0512Y-4.937
X6.063Y-2.7559
X6.063Y-3.5276
X6.063Y-4.2756
X6.0945Y-3.9646
X6.0945Y-4.0039
X6.0945Y-4.0394
X6.1024Y-4.8228
X6.1024Y-4.937
X6.1051Y-3.6398
X6.1055Y-4.389
X6.1063Y-2.8984
X6.1295Y-3.9402
X6.1496Y-4.063
X6.1575Y-4.0236
X6.1689Y-3.9906
X6.1772Y-4.3949
X6.1776Y-2.8969
X6.1791Y-3.6449
X6.1811Y-2.7559
X6.1811Y-3.5276
X6.1811Y-4.2756
X6.1929Y-4.7598
X6.2303Y-3.7177
X6.2378Y-4.2728
X6.2717Y-4.7559
X6.2839Y-3.9614
X6.3071Y-2.6929
X6.3197Y-5.55
X6.3386Y-3.3031
X6.3386Y-3.3976
X6.3425Y-4.7835
X6.3465Y-3.4764
X6.3504Y-2.7362
X6.3504Y-4.2244
X6.3819Y-4.9173
X6.3819Y-4.9724
X6.3898Y-2.811
X6.3898Y-3.5551
X6.4016Y-4.3031
X6.424Y-5.0118
X6.4291Y-4.0748
X6.4469Y-5.5035
X6.4715Y-3.2854
X6.4804Y-3.2446
X6.4862Y-4.7874
X6.4941Y-3.9094
X6.4961Y-3.3248
X6.4984Y-4.687
X6.5Y-4.7449
X6.502Y-3.9783
X6.5108Y-4.8376
X6.5197Y-4.7904
X6.5207Y-3.287
X6.5232Y-3.1947
X6.5237Y-4.9858
X6.5984Y-4.1378
X6.6299Y-3.4016
X6.6457Y-2.6575
X6.6457Y-2.7047
X6.6496Y-3.4488
X6.6516Y-3.3138
X6.6535Y-4.1969
X6.6614Y-4.7756
X6.689Y-3.315
X6.689Y-3.6122
X6.6969Y-5.3543
X6.7087Y-2.7047
X6.7126Y-3.4606
X6.7165Y-4.1969
X6.7283Y-2.8386
X6.7323Y-4.3386
X6.7539Y-4.4705
X6.7559Y-3.5413
X6.7559Y-3.6535
X6.7567Y-3.3134
X6.7874Y-4.8071
X6.7874Y-4.9213
X6.7874Y-5.4016
X6.7878Y-4.7252
X6.8189Y-2.8543
X6.8189Y-3.1083
X6.8189Y-3.1752
X6.8189Y-3.6142
X6.8189Y-3.9449
X6.8228Y-4.374
X6.8268Y-4.7362
X6.8307Y-4.3189
X6.8504Y-2.8858
X6.8504Y-2.9606
X6.8504Y-3.0295
X6.8504Y-3.5669
X6.8543Y-3.0906
X6.8543Y-3.1949
X6.8602Y-5.1339
X6.8622Y-4.4055
X6.8622Y-4.9921
X6.8819Y-3.0315
X6.8835Y-4.7866
X6.8882Y-4.6575
X6.9173Y-4.148
X6.9272Y-4.6555
X6.9272Y-5.0591
X6.9555Y-5.6402
X6.9606Y-5.1299
X7.063Y-4.4016
X7.0669Y-2.8757
X7.0811Y-2.9783
X7.1071Y-5.7244
X7.1614Y-4.2008
X7.1717Y-3.9087
X7.1732Y-4.3898
X7.2067Y-5.685
X7.252Y-3.2323
X7.2717Y-3.9331
X7.2732Y-3.0079
X7.2795Y-3.374
X7.2835Y-3.2795
X7.2874Y-3.9646
X7.311Y-3.2244
X7.311Y-3.9016
X7.3142Y-2.821
X7.3386Y-2.8803
X7.3693Y-2.9209
X7.378Y-3.4252
X7.4134Y-3.7913
X7.4213Y-3.4921
X7.4213Y-3.5984
X7.4291Y-3.6929
X7.4346Y-2.9791
X7.437Y-3.2953
X7.4488Y-3.6575
X7.4488Y-3.7638
X7.4488Y-3.8583
X7.4528Y-3.3583
X7.4528Y-3.4606
X7.4528Y-3.563
X7.4803Y-3.1244
X7.4921Y-3.0757
X7.4961Y-2.7913
X7.5079Y-3.8976
X7.5079Y-3.9528
T2
X7.1378Y-4.1457
X7.2378Y-4.1457
X7.3378Y-4.1457
X7.4378Y-4.1457
X7.2622Y-4.3425
X7.4622Y-4.3425
X6.963Y-2.8757
X6.963Y-2.9757
X6.963Y-3.0757
X6.963Y-3.1757
X6.963Y-3.2757
X6.963Y-3.3757
X6.963Y-3.4757
X6.963Y-3.5757
X6.963Y-3.6757
X6.963Y-3.7757
X6.963Y-3.8757
X6.963Y-3.9757
X7.0152Y-2.8257
X7.0152Y-2.9257
X7.0152Y-3.0257
X7.0152Y-3.1257
X7.0152Y-3.2257
X7.0152Y-3.3257
X7.0152Y-3.4257
X7.0152Y-3.5257
X7.0152Y-3.6257
X7.0152Y-3.7257
X7.0152Y-3.8257
X7.0152Y-3.9257
X7.563Y-2.8757
X7.563Y-2.9757
X7.563Y-3.0757
X7.563Y-3.1757
X7.563Y-3.2757
X7.563Y-3.3757
X7.563Y-3.4757
X7.563Y-3.5757
X7.563Y-3.6757
X7.563Y-3.7757
X7.563Y-3.8757
X7.563Y-3.9757
X7.6144Y-2.8257
X7.6144Y-2.9257
X7.6144Y-3.0257
X7.6144Y-3.1257
X7.6144Y-3.2257
X7.6144Y-3.3257
X7.6144Y-3.4257
X7.6144Y-3.5257
X7.6144Y-3.6257
X7.6144Y-3.7257
X7.6144Y-3.8257
X7.6144Y-3.9257
X7.126Y-4.3425
X7.126Y-4.252
X7.2622Y-4.252
X7.4622Y-4.252
T4
X7.5945Y-4.0846
X7.5945Y-4.3406
T5
X6.998Y-4.5571
X7.5689Y-4.8917
T6
X3.878Y-3.4154
X3.878Y-4.1634
X3.1299Y-3.4154
X6.6634Y-5.1378
X4.8327Y-4.8327
X6.122Y-3.2677
X3.1299Y-4.1535
T7
X7.3307Y-4.5256
X7.3307Y-4.5945
X7.6063Y-4.5256
X7.6063Y-4.5945
T8
X4.8228Y-4.252
X5.1772Y-4.252
X2.5787Y-3.0364
X2.9331Y-3.0364
X6.3189Y-3.6909
X6.6732Y-3.6909
X4.8228Y-3.5039
X5.1772Y-3.5039
X5.5709Y-4.3455
X5.9252Y-4.3455
X2.5787Y-4.5325
X2.9331Y-4.5325
X4.0748Y-3.5974
X4.4291Y-3.5974
X3.3268Y-4.5325
X3.6811Y-4.5325
X3.3268Y-3.7844
X3.6811Y-3.7844
X5.5709Y-3.5974
X5.9252Y-3.5974
X6.9882Y-5.5274
X7.1654Y-5.2206
X4.0748Y-4.3455
X4.4291Y-4.3455
X4.0748Y-2.8494
X4.4291Y-2.8494
X3.3268Y-3.0364
X3.6811Y-3.0364
X4.8228Y-2.7559
X5.1772Y-2.7559
X6.0297Y-5.1805
X6.3719Y-5.2722
X5.1969Y-5.1181
X5.5512Y-5.1181
X2.5787Y-3.7844
X2.9331Y-3.7844
X6.3189Y-4.439
X6.6732Y-4.439
X6.3189Y-2.9429
X6.6732Y-2.9429
X5.5709Y-2.8494
X5.9252Y-2.8494
T9
X5.548Y-2.8494
X5.948Y-2.8494
X4.8Y-4.252
X5.2Y-4.252
X2.5559Y-3.0364
X2.9559Y-3.0364
X6.2961Y-3.6909
X6.6961Y-3.6909
X4.8Y-3.5039
X5.2Y-3.5039
X5.548Y-4.3455
X5.948Y-4.3455
X2.5559Y-4.5325
X2.9559Y-4.5325
X4.052Y-3.5974
X4.452Y-3.5974
X3.3039Y-4.5325
X3.7039Y-4.5325
X3.3039Y-3.7844
X3.7039Y-3.7844
X5.548Y-3.5974
X5.948Y-3.5974
X6.9768Y-5.5472
X7.1768Y-5.2008
X4.052Y-4.3455
X4.452Y-4.3455
X4.052Y-2.8494
X4.452Y-2.8494
X3.3039Y-3.0364
X3.7039Y-3.0364
X4.8Y-2.7559
X5.2Y-2.7559
X6.0076Y-5.1746
X6.394Y-5.2781
X5.174Y-5.1181
X5.574Y-5.1181
X2.5559Y-3.7844
X2.9559Y-3.7844
X6.2961Y-4.439
X6.6961Y-4.439
X6.2961Y-2.9429
X6.6961Y-2.9429
T10
X4.102Y-2.9494
X4.152Y-3.0494
X4.352Y-3.0494
X4.402Y-2.9494
X3.3539Y-3.1364
X3.4039Y-3.2364
X3.6039Y-3.2364
X3.6539Y-3.1364
X4.85Y-2.8559
X4.9Y-2.9559
X5.1Y-2.9559
X5.15Y-2.8559
X6.03Y-5.2841
X6.0524Y-5.3937
X6.2456Y-5.4454
X6.3198Y-5.3618
X5.224Y-5.2181
X5.274Y-5.3181
X5.474Y-5.3181
X5.524Y-5.2181
X2.6059Y-3.8844
X2.6559Y-3.9844
X2.8559Y-3.9844
X2.9059Y-3.8844
X6.3461Y-4.539
X6.3961Y-4.639
X6.5961Y-4.639
X6.6461Y-4.539
X6.3461Y-3.0429
X6.3961Y-3.1429
X6.5961Y-3.1429
X6.6461Y-3.0429
X5.598Y-2.9494
X5.648Y-3.0494
X5.848Y-3.0494
X5.898Y-2.9494
X4.85Y-4.352
X4.9Y-4.452
X5.1Y-4.452
X5.15Y-4.352
X2.6059Y-3.1364
X2.6559Y-3.2364
X2.8559Y-3.2364
X2.9059Y-3.1364
X6.3461Y-3.7909
X6.3961Y-3.8909
X6.5961Y-3.8909
X6.6461Y-3.7909
X4.85Y-3.6039
X4.9Y-3.7039
X5.1Y-3.7039
X5.15Y-3.6039
X5.598Y-4.4455
X5.648Y-4.5455
X5.848Y-4.5455
X5.898Y-4.4455
X2.6059Y-4.6325
X2.6559Y-4.7325
X2.8559Y-4.7325
X2.9059Y-4.6325
X4.102Y-3.6974
X4.152Y-3.7974
X4.352Y-3.7974
X4.402Y-3.6974
X3.3539Y-4.6325
X3.4039Y-4.7325
X3.6039Y-4.7325
X3.6539Y-4.6325
X3.3539Y-3.8844
X3.4039Y-3.9844
X3.6039Y-3.9844
X3.6539Y-3.8844
X5.598Y-3.6974
X5.648Y-3.7974
X5.848Y-3.7974
X5.898Y-3.6974
X7.0884Y-5.5539
X7.2Y-5.5606
X7.2384Y-5.2941
X7.3Y-5.3874
X4.102Y-4.4455
X4.152Y-4.5455
X4.352Y-4.5455
X4.402Y-4.4455
T11
X5.0Y-3.5039
X5.748Y-4.3455
X2.7559Y-4.5325
X4.252Y-3.5974
X3.5039Y-4.5325
X3.5039Y-3.7844
X5.748Y-3.5974
X7.0768Y-5.374
X4.252Y-4.3455
X4.252Y-2.8494
X3.5039Y-3.0364
X5.0Y-2.7559
X6.2008Y-5.2264
X5.374Y-5.1181
X2.7559Y-3.7844
X6.4961Y-4.439
X6.4961Y-2.9429
X5.748Y-2.8494
X5.0Y-4.252
X2.7559Y-3.0364
X6.4961Y-3.6909
T3
G00X7.2106Y-4.5118
M15
G01X7.1909Y-4.5118
M16
G05
G00X7.2106Y-4.6083
M15
G01X7.1909Y-4.6083
M16
G05
G00X7.2697Y-4.4429
M15
G01X7.25Y-4.4429
M16
G05
G00X7.2697Y-4.6772
M15
G01X7.25Y-4.6772
M16
G05
G00X7.4272Y-4.4429
M15
G01X7.4075Y-4.4429
M16
G05
G00X7.4272Y-4.6772
M15
G01X7.4075Y-4.6772
M16
G05
G00X7.5453Y-4.4429
M15
G01X7.5256Y-4.4429
M16
G05
G00X7.5453Y-4.6772
M15
G01X7.5256Y-4.6772
M16
G05
T0
M30
