G04 #@! TF.GenerationSoftware,KiCad,Pcbnew,(5.1.6)-1*
G04 #@! TF.CreationDate,2020-05-17T06:20:34+03:00*
G04 #@! TF.ProjectId,corne-cherry,636f726e-652d-4636-9865-7272792e6b69,2.1*
G04 #@! TF.SameCoordinates,Original*
G04 #@! TF.FileFunction,Soldermask,Top*
G04 #@! TF.FilePolarity,Negative*
%FSLAX46Y46*%
G04 Gerber Fmt 4.6, Leading zero omitted, Abs format (unit mm)*
G04 Created by KiCad (PCBNEW (5.1.6)-1) date 2020-05-17 06:20:34*
%MOMM*%
%LPD*%
G01*
G04 APERTURE LIST*
%ADD10C,0.125000*%
%ADD11C,2.100000*%
%ADD12C,2.300000*%
%ADD13C,4.500000*%
%ADD14C,3.400000*%
%ADD15C,0.100000*%
%ADD16R,2.700000X2.400000*%
%ADD17C,1.600000*%
%ADD18O,2.900000X2.100000*%
%ADD19R,2.400000X1.400000*%
%ADD20R,2.000000X1.400000*%
%ADD21C,1.924000*%
%ADD22R,1.350000X1.700000*%
%ADD23C,1.797000*%
%ADD24R,1.543000X1.035000*%
%ADD25R,1.924000X1.924000*%
%ADD26C,5.400000*%
%ADD27C,4.400000*%
%ADD28C,2.400000*%
%ADD29R,0.800000X0.800000*%
%ADD30R,1.000000X1.543000*%
G04 APERTURE END LIST*
D10*
X99140773Y-120994642D02*
X99093154Y-121042261D01*
X98950297Y-121089880D01*
X98855059Y-121089880D01*
X98712202Y-121042261D01*
X98616964Y-120947023D01*
X98569345Y-120851785D01*
X98521726Y-120661309D01*
X98521726Y-120518452D01*
X98569345Y-120327976D01*
X98616964Y-120232738D01*
X98712202Y-120137500D01*
X98855059Y-120089880D01*
X98950297Y-120089880D01*
X99093154Y-120137500D01*
X99140773Y-120185119D01*
X99712202Y-121089880D02*
X99616964Y-121042261D01*
X99569345Y-120994642D01*
X99521726Y-120899404D01*
X99521726Y-120613690D01*
X99569345Y-120518452D01*
X99616964Y-120470833D01*
X99712202Y-120423214D01*
X99855059Y-120423214D01*
X99950297Y-120470833D01*
X99997916Y-120518452D01*
X100045535Y-120613690D01*
X100045535Y-120899404D01*
X99997916Y-120994642D01*
X99950297Y-121042261D01*
X99855059Y-121089880D01*
X99712202Y-121089880D01*
X100474107Y-121089880D02*
X100474107Y-120423214D01*
X100474107Y-120613690D02*
X100521726Y-120518452D01*
X100569345Y-120470833D01*
X100664583Y-120423214D01*
X100759821Y-120423214D01*
X101093154Y-120423214D02*
X101093154Y-121089880D01*
X101093154Y-120518452D02*
X101140773Y-120470833D01*
X101236011Y-120423214D01*
X101378869Y-120423214D01*
X101474107Y-120470833D01*
X101521726Y-120566071D01*
X101521726Y-121089880D01*
X102378869Y-121042261D02*
X102283630Y-121089880D01*
X102093154Y-121089880D01*
X101997916Y-121042261D01*
X101950297Y-120947023D01*
X101950297Y-120566071D01*
X101997916Y-120470833D01*
X102093154Y-120423214D01*
X102283630Y-120423214D01*
X102378869Y-120470833D01*
X102426488Y-120566071D01*
X102426488Y-120661309D01*
X101950297Y-120756547D01*
X104188392Y-120994642D02*
X104140773Y-121042261D01*
X103997916Y-121089880D01*
X103902678Y-121089880D01*
X103759821Y-121042261D01*
X103664583Y-120947023D01*
X103616964Y-120851785D01*
X103569345Y-120661309D01*
X103569345Y-120518452D01*
X103616964Y-120327976D01*
X103664583Y-120232738D01*
X103759821Y-120137500D01*
X103902678Y-120089880D01*
X103997916Y-120089880D01*
X104140773Y-120137500D01*
X104188392Y-120185119D01*
X104616964Y-121089880D02*
X104616964Y-120089880D01*
X105045535Y-121089880D02*
X105045535Y-120566071D01*
X104997916Y-120470833D01*
X104902678Y-120423214D01*
X104759821Y-120423214D01*
X104664583Y-120470833D01*
X104616964Y-120518452D01*
X105902678Y-121042261D02*
X105807440Y-121089880D01*
X105616964Y-121089880D01*
X105521726Y-121042261D01*
X105474107Y-120947023D01*
X105474107Y-120566071D01*
X105521726Y-120470833D01*
X105616964Y-120423214D01*
X105807440Y-120423214D01*
X105902678Y-120470833D01*
X105950297Y-120566071D01*
X105950297Y-120661309D01*
X105474107Y-120756547D01*
X106378869Y-121089880D02*
X106378869Y-120423214D01*
X106378869Y-120613690D02*
X106426488Y-120518452D01*
X106474107Y-120470833D01*
X106569345Y-120423214D01*
X106664583Y-120423214D01*
X106997916Y-121089880D02*
X106997916Y-120423214D01*
X106997916Y-120613690D02*
X107045535Y-120518452D01*
X107093154Y-120470833D01*
X107188392Y-120423214D01*
X107283630Y-120423214D01*
X107521726Y-120423214D02*
X107759821Y-121089880D01*
X107997916Y-120423214D02*
X107759821Y-121089880D01*
X107664583Y-121327976D01*
X107616964Y-121375595D01*
X107521726Y-121423214D01*
X109045535Y-120423214D02*
X109283630Y-121089880D01*
X109521726Y-120423214D01*
X109855059Y-120185119D02*
X109902678Y-120137500D01*
X109997916Y-120089880D01*
X110236011Y-120089880D01*
X110331250Y-120137500D01*
X110378869Y-120185119D01*
X110426488Y-120280357D01*
X110426488Y-120375595D01*
X110378869Y-120518452D01*
X109807440Y-121089880D01*
X110426488Y-121089880D01*
X110855059Y-120994642D02*
X110902678Y-121042261D01*
X110855059Y-121089880D01*
X110807440Y-121042261D01*
X110855059Y-120994642D01*
X110855059Y-121089880D01*
X111855059Y-121089880D02*
X111283630Y-121089880D01*
X111569345Y-121089880D02*
X111569345Y-120089880D01*
X111474107Y-120232738D01*
X111378869Y-120327976D01*
X111283630Y-120375595D01*
X98569345Y-122714880D02*
X98569345Y-121714880D01*
X98950297Y-121714880D01*
X99045535Y-121762500D01*
X99093154Y-121810119D01*
X99140773Y-121905357D01*
X99140773Y-122048214D01*
X99093154Y-122143452D01*
X99045535Y-122191071D01*
X98950297Y-122238690D01*
X98569345Y-122238690D01*
X100140773Y-122619642D02*
X100093154Y-122667261D01*
X99950297Y-122714880D01*
X99855059Y-122714880D01*
X99712202Y-122667261D01*
X99616964Y-122572023D01*
X99569345Y-122476785D01*
X99521726Y-122286309D01*
X99521726Y-122143452D01*
X99569345Y-121952976D01*
X99616964Y-121857738D01*
X99712202Y-121762500D01*
X99855059Y-121714880D01*
X99950297Y-121714880D01*
X100093154Y-121762500D01*
X100140773Y-121810119D01*
X100902678Y-122191071D02*
X101045535Y-122238690D01*
X101093154Y-122286309D01*
X101140773Y-122381547D01*
X101140773Y-122524404D01*
X101093154Y-122619642D01*
X101045535Y-122667261D01*
X100950297Y-122714880D01*
X100569345Y-122714880D01*
X100569345Y-121714880D01*
X100902678Y-121714880D01*
X100997916Y-121762500D01*
X101045535Y-121810119D01*
X101093154Y-121905357D01*
X101093154Y-122000595D01*
X101045535Y-122095833D01*
X100997916Y-122143452D01*
X100902678Y-122191071D01*
X100569345Y-122191071D01*
X102759821Y-122714880D02*
X102759821Y-121714880D01*
X102759821Y-122667261D02*
X102664583Y-122714880D01*
X102474107Y-122714880D01*
X102378869Y-122667261D01*
X102331250Y-122619642D01*
X102283630Y-122524404D01*
X102283630Y-122238690D01*
X102331250Y-122143452D01*
X102378869Y-122095833D01*
X102474107Y-122048214D01*
X102664583Y-122048214D01*
X102759821Y-122095833D01*
X103616964Y-122667261D02*
X103521726Y-122714880D01*
X103331250Y-122714880D01*
X103236011Y-122667261D01*
X103188392Y-122572023D01*
X103188392Y-122191071D01*
X103236011Y-122095833D01*
X103331250Y-122048214D01*
X103521726Y-122048214D01*
X103616964Y-122095833D01*
X103664583Y-122191071D01*
X103664583Y-122286309D01*
X103188392Y-122381547D01*
X104045535Y-122667261D02*
X104140773Y-122714880D01*
X104331250Y-122714880D01*
X104426488Y-122667261D01*
X104474107Y-122572023D01*
X104474107Y-122524404D01*
X104426488Y-122429166D01*
X104331250Y-122381547D01*
X104188392Y-122381547D01*
X104093154Y-122333928D01*
X104045535Y-122238690D01*
X104045535Y-122191071D01*
X104093154Y-122095833D01*
X104188392Y-122048214D01*
X104331250Y-122048214D01*
X104426488Y-122095833D01*
X104902678Y-122714880D02*
X104902678Y-122048214D01*
X104902678Y-121714880D02*
X104855059Y-121762500D01*
X104902678Y-121810119D01*
X104950297Y-121762500D01*
X104902678Y-121714880D01*
X104902678Y-121810119D01*
X105807440Y-122048214D02*
X105807440Y-122857738D01*
X105759821Y-122952976D01*
X105712202Y-123000595D01*
X105616964Y-123048214D01*
X105474107Y-123048214D01*
X105378869Y-123000595D01*
X105807440Y-122667261D02*
X105712202Y-122714880D01*
X105521726Y-122714880D01*
X105426488Y-122667261D01*
X105378869Y-122619642D01*
X105331250Y-122524404D01*
X105331250Y-122238690D01*
X105378869Y-122143452D01*
X105426488Y-122095833D01*
X105521726Y-122048214D01*
X105712202Y-122048214D01*
X105807440Y-122095833D01*
X106283630Y-122048214D02*
X106283630Y-122714880D01*
X106283630Y-122143452D02*
X106331250Y-122095833D01*
X106426488Y-122048214D01*
X106569345Y-122048214D01*
X106664583Y-122095833D01*
X106712202Y-122191071D01*
X106712202Y-122714880D01*
X107569345Y-122667261D02*
X107474107Y-122714880D01*
X107283630Y-122714880D01*
X107188392Y-122667261D01*
X107140773Y-122572023D01*
X107140773Y-122191071D01*
X107188392Y-122095833D01*
X107283630Y-122048214D01*
X107474107Y-122048214D01*
X107569345Y-122095833D01*
X107616964Y-122191071D01*
X107616964Y-122286309D01*
X107140773Y-122381547D01*
X108474107Y-122714880D02*
X108474107Y-121714880D01*
X108474107Y-122667261D02*
X108378869Y-122714880D01*
X108188392Y-122714880D01*
X108093154Y-122667261D01*
X108045535Y-122619642D01*
X107997916Y-122524404D01*
X107997916Y-122238690D01*
X108045535Y-122143452D01*
X108093154Y-122095833D01*
X108188392Y-122048214D01*
X108378869Y-122048214D01*
X108474107Y-122095833D01*
X109712202Y-122714880D02*
X109712202Y-121714880D01*
X109712202Y-122095833D02*
X109807440Y-122048214D01*
X109997916Y-122048214D01*
X110093154Y-122095833D01*
X110140773Y-122143452D01*
X110188392Y-122238690D01*
X110188392Y-122524404D01*
X110140773Y-122619642D01*
X110093154Y-122667261D01*
X109997916Y-122714880D01*
X109807440Y-122714880D01*
X109712202Y-122667261D01*
X110521726Y-122048214D02*
X110759821Y-122714880D01*
X110997916Y-122048214D02*
X110759821Y-122714880D01*
X110664583Y-122952976D01*
X110616964Y-123000595D01*
X110521726Y-123048214D01*
X111997916Y-122048214D02*
X112378869Y-122048214D01*
X112140773Y-122714880D02*
X112140773Y-121857738D01*
X112188392Y-121762500D01*
X112283630Y-121714880D01*
X112378869Y-121714880D01*
X112855059Y-122714880D02*
X112759821Y-122667261D01*
X112712202Y-122619642D01*
X112664583Y-122524404D01*
X112664583Y-122238690D01*
X112712202Y-122143452D01*
X112759821Y-122095833D01*
X112855059Y-122048214D01*
X112997916Y-122048214D01*
X113093154Y-122095833D01*
X113140773Y-122143452D01*
X113188392Y-122238690D01*
X113188392Y-122524404D01*
X113140773Y-122619642D01*
X113093154Y-122667261D01*
X112997916Y-122714880D01*
X112855059Y-122714880D01*
X113759821Y-122714880D02*
X113664583Y-122667261D01*
X113616964Y-122619642D01*
X113569345Y-122524404D01*
X113569345Y-122238690D01*
X113616964Y-122143452D01*
X113664583Y-122095833D01*
X113759821Y-122048214D01*
X113902678Y-122048214D01*
X113997916Y-122095833D01*
X114045535Y-122143452D01*
X114093154Y-122238690D01*
X114093154Y-122524404D01*
X114045535Y-122619642D01*
X113997916Y-122667261D01*
X113902678Y-122714880D01*
X113759821Y-122714880D01*
X114474107Y-122667261D02*
X114569345Y-122714880D01*
X114759821Y-122714880D01*
X114855059Y-122667261D01*
X114902678Y-122572023D01*
X114902678Y-122524404D01*
X114855059Y-122429166D01*
X114759821Y-122381547D01*
X114616964Y-122381547D01*
X114521726Y-122333928D01*
X114474107Y-122238690D01*
X114474107Y-122191071D01*
X114521726Y-122095833D01*
X114616964Y-122048214D01*
X114759821Y-122048214D01*
X114855059Y-122095833D01*
X115188392Y-122048214D02*
X115569345Y-122048214D01*
X115331250Y-121714880D02*
X115331250Y-122572023D01*
X115378869Y-122667261D01*
X115474107Y-122714880D01*
X115569345Y-122714880D01*
X116331250Y-122714880D02*
X116331250Y-122191071D01*
X116283630Y-122095833D01*
X116188392Y-122048214D01*
X115997916Y-122048214D01*
X115902678Y-122095833D01*
X116331250Y-122667261D02*
X116236011Y-122714880D01*
X115997916Y-122714880D01*
X115902678Y-122667261D01*
X115855059Y-122572023D01*
X115855059Y-122476785D01*
X115902678Y-122381547D01*
X115997916Y-122333928D01*
X116236011Y-122333928D01*
X116331250Y-122286309D01*
X116807440Y-122048214D02*
X116807440Y-122714880D01*
X116807440Y-122143452D02*
X116855059Y-122095833D01*
X116950297Y-122048214D01*
X117093154Y-122048214D01*
X117188392Y-122095833D01*
X117236011Y-122191071D01*
X117236011Y-122714880D01*
D11*
X177500000Y-140397114D03*
X182000000Y-132602886D03*
D12*
X182290000Y-132100591D03*
X177210000Y-140899409D03*
D13*
X179750000Y-136500000D03*
D14*
X182879409Y-141239705D03*
X180044705Y-141069557D03*
X185419409Y-136840295D03*
X183854705Y-134470443D03*
D15*
G36*
X187398280Y-135892789D02*
G01*
X185319820Y-134692789D01*
X186669820Y-132354521D01*
X188748280Y-133554521D01*
X187398280Y-135892789D01*
G37*
G36*
X178848576Y-145621312D02*
G01*
X176770116Y-144421312D01*
X178120116Y-142083044D01*
X180198576Y-143283044D01*
X178848576Y-145621312D01*
G37*
D11*
X65500000Y-77125000D03*
X74500000Y-77125000D03*
D12*
X75080000Y-77125000D03*
X64920000Y-77125000D03*
D13*
X70000000Y-77125000D03*
D14*
X67460000Y-82205000D03*
X66190000Y-79665001D03*
X72540000Y-82205000D03*
X73810000Y-79665000D03*
D16*
X75700000Y-82245000D03*
X63000000Y-79705000D03*
D11*
X132000000Y-130000000D03*
X141000000Y-130000000D03*
D12*
X141580000Y-130000000D03*
X131420000Y-130000000D03*
D13*
X136500000Y-130000000D03*
D14*
X133960000Y-135080000D03*
X132690000Y-132540001D03*
X139040000Y-135080000D03*
X140310000Y-132540000D03*
D16*
X142200000Y-135120000D03*
X129500000Y-132580000D03*
D11*
X160500000Y-112750000D03*
X169500000Y-112750000D03*
D12*
X170080000Y-112750000D03*
X159920000Y-112750000D03*
D13*
X165000000Y-112750000D03*
D14*
X162460000Y-117830000D03*
X161190000Y-115290001D03*
X167540000Y-117830000D03*
X168810000Y-115290000D03*
D16*
X170700000Y-117870000D03*
X158000000Y-115330000D03*
D11*
X103500000Y-110375000D03*
X112500000Y-110375000D03*
D12*
X113080000Y-110375000D03*
X102920000Y-110375000D03*
D13*
X108000000Y-110375000D03*
D14*
X105460000Y-115455000D03*
X104190000Y-112915001D03*
X110540000Y-115455000D03*
X111810000Y-112915000D03*
D16*
X113700000Y-115495000D03*
X101000000Y-112955000D03*
D11*
X84500000Y-115125000D03*
X93500000Y-115125000D03*
D12*
X94080000Y-115125000D03*
X83920000Y-115125000D03*
D13*
X89000000Y-115125000D03*
D14*
X86460000Y-120205000D03*
X85190000Y-117665001D03*
X91540000Y-120205000D03*
X92810000Y-117665000D03*
D16*
X94700000Y-120245000D03*
X82000000Y-117705000D03*
D11*
X65500000Y-115125000D03*
X74500000Y-115125000D03*
D12*
X75080000Y-115125000D03*
X64920000Y-115125000D03*
D13*
X70000000Y-115125000D03*
D14*
X67460000Y-120205000D03*
X66190000Y-117665001D03*
X72540000Y-120205000D03*
X73810000Y-117665000D03*
D16*
X75700000Y-120245000D03*
X63000000Y-117705000D03*
D11*
X160500000Y-93750000D03*
X169500000Y-93750000D03*
D12*
X170080000Y-93750000D03*
X159920000Y-93750000D03*
D13*
X165000000Y-93750000D03*
D14*
X162460000Y-98830000D03*
X161190000Y-96290001D03*
X167540000Y-98830000D03*
X168810000Y-96290000D03*
D16*
X170700000Y-98870000D03*
X158000000Y-96330000D03*
D11*
X141500000Y-91375000D03*
X150500000Y-91375000D03*
D12*
X151080000Y-91375000D03*
X140920000Y-91375000D03*
D13*
X146000000Y-91375000D03*
D14*
X143460000Y-96455000D03*
X142190000Y-93915001D03*
X148540000Y-96455000D03*
X149810000Y-93915000D03*
D16*
X151700000Y-96495000D03*
X139000000Y-93955000D03*
D11*
X122500000Y-89000000D03*
X131500000Y-89000000D03*
D12*
X132080000Y-89000000D03*
X121920000Y-89000000D03*
D13*
X127000000Y-89000000D03*
D14*
X124460000Y-94080000D03*
X123190000Y-91540001D03*
X129540000Y-94080000D03*
X130810000Y-91540000D03*
D16*
X132700000Y-94120000D03*
X120000000Y-91580000D03*
D11*
X103500000Y-91375000D03*
X112500000Y-91375000D03*
D12*
X113080000Y-91375000D03*
X102920000Y-91375000D03*
D13*
X108000000Y-91375000D03*
D14*
X105460000Y-96455000D03*
X104190000Y-93915001D03*
X110540000Y-96455000D03*
X111810000Y-93915000D03*
D16*
X113700000Y-96495000D03*
X101000000Y-93955000D03*
D11*
X84500000Y-96125000D03*
X93500000Y-96125000D03*
D12*
X94080000Y-96125000D03*
X83920000Y-96125000D03*
D13*
X89000000Y-96125000D03*
D14*
X86460000Y-101205000D03*
X85190000Y-98665001D03*
X91540000Y-101205000D03*
X92810000Y-98665000D03*
D16*
X94700000Y-101245000D03*
X82000000Y-98705000D03*
D11*
X65500000Y-96125000D03*
X74500000Y-96125000D03*
D12*
X75080000Y-96125000D03*
X64920000Y-96125000D03*
D13*
X70000000Y-96125000D03*
D14*
X67460000Y-101205000D03*
X66190000Y-98665001D03*
X72540000Y-101205000D03*
X73810000Y-98665000D03*
D16*
X75700000Y-101245000D03*
X63000000Y-98705000D03*
D11*
X160500000Y-74750000D03*
X169500000Y-74750000D03*
D12*
X170080000Y-74750000D03*
X159920000Y-74750000D03*
D13*
X165000000Y-74750000D03*
D14*
X162460000Y-79830000D03*
X161190000Y-77290001D03*
X167540000Y-79830000D03*
X168810000Y-77290000D03*
D16*
X170700000Y-79870000D03*
X158000000Y-77330000D03*
D11*
X141500000Y-72375000D03*
X150500000Y-72375000D03*
D12*
X151080000Y-72375000D03*
X140920000Y-72375000D03*
D13*
X146000000Y-72375000D03*
D14*
X143460000Y-77455000D03*
X142190000Y-74915001D03*
X148540000Y-77455000D03*
X149810000Y-74915000D03*
D16*
X151700000Y-77495000D03*
X139000000Y-74955000D03*
D11*
X103500000Y-72375000D03*
X112500000Y-72375000D03*
D12*
X113080000Y-72375000D03*
X102920000Y-72375000D03*
D13*
X108000000Y-72375000D03*
D14*
X105460000Y-77455000D03*
X104190000Y-74915001D03*
X110540000Y-77455000D03*
X111810000Y-74915000D03*
D16*
X113700000Y-77495000D03*
X101000000Y-74955000D03*
D11*
X84500000Y-77125000D03*
X93500000Y-77125000D03*
D12*
X94080000Y-77125000D03*
X83920000Y-77125000D03*
D13*
X89000000Y-77125000D03*
D14*
X86460000Y-82205000D03*
X85190000Y-79665001D03*
X91540000Y-82205000D03*
X92810000Y-79665000D03*
D16*
X94700000Y-82245000D03*
X82000000Y-79705000D03*
D11*
X141500000Y-110375000D03*
X150500000Y-110375000D03*
D12*
X151080000Y-110375000D03*
X140920000Y-110375000D03*
D13*
X146000000Y-110375000D03*
D14*
X143460000Y-115455000D03*
X142190000Y-112915001D03*
X148540000Y-115455000D03*
X149810000Y-112915000D03*
D16*
X151700000Y-115495000D03*
X139000000Y-112955000D03*
D11*
X153153334Y-131585314D03*
X161846666Y-133914686D03*
D12*
X162406903Y-134064801D03*
X152593097Y-131435199D03*
D13*
X157500000Y-132750000D03*
D14*
X153731748Y-136999503D03*
X153162422Y-134217352D03*
X158638651Y-138314304D03*
X160522777Y-136189552D03*
D15*
G36*
X160066041Y-139980514D02*
G01*
X160687207Y-137662292D01*
X163295207Y-138361104D01*
X162674041Y-140679326D01*
X160066041Y-139980514D01*
G37*
G36*
X148456183Y-134240060D02*
G01*
X149077349Y-131921838D01*
X151685349Y-132620650D01*
X151064183Y-134938872D01*
X148456183Y-134240060D01*
G37*
D11*
X122500000Y-70000000D03*
X131500000Y-70000000D03*
D12*
X132080000Y-70000000D03*
X121920000Y-70000000D03*
D13*
X127000000Y-70000000D03*
D14*
X124460000Y-75080000D03*
X123190000Y-72540001D03*
X129540000Y-75080000D03*
X130810000Y-72540000D03*
D16*
X132700000Y-75120000D03*
X120000000Y-72580000D03*
D11*
X122500000Y-108000000D03*
X131500000Y-108000000D03*
D12*
X132080000Y-108000000D03*
X121920000Y-108000000D03*
D13*
X127000000Y-108000000D03*
D14*
X124460000Y-113080000D03*
X123190000Y-110540001D03*
X129540000Y-113080000D03*
X130810000Y-110540000D03*
D16*
X132700000Y-113120000D03*
X120000000Y-110580000D03*
D17*
X186200000Y-114950000D03*
X193200000Y-114950000D03*
D18*
X184400000Y-112850000D03*
X182900000Y-117050000D03*
X191400000Y-112850000D03*
X188400000Y-112850000D03*
D17*
X193200000Y-116700000D03*
X186200000Y-116700000D03*
D18*
X191400000Y-118800000D03*
X188400000Y-118800000D03*
X184400000Y-118800000D03*
X182900000Y-114600000D03*
D19*
X162800000Y-122375000D03*
X162800000Y-120625000D03*
X167200000Y-122375000D03*
X167200000Y-120625000D03*
X167200000Y-82625000D03*
X167200000Y-84375000D03*
X162800000Y-82625000D03*
X162800000Y-84375000D03*
X129200000Y-77925000D03*
X129200000Y-79675000D03*
X124800000Y-77925000D03*
X124800000Y-79675000D03*
X91200000Y-85025000D03*
X91200000Y-86775000D03*
X86800000Y-85025000D03*
X86800000Y-86775000D03*
X86800000Y-105775000D03*
X86800000Y-104025000D03*
X91200000Y-105775000D03*
X91200000Y-104025000D03*
X124800000Y-117675000D03*
X124800000Y-115925000D03*
X129200000Y-117675000D03*
X129200000Y-115925000D03*
D15*
G36*
X176851554Y-130893014D02*
G01*
X178063990Y-131593014D01*
X177063990Y-133325064D01*
X175851554Y-132625064D01*
X176851554Y-130893014D01*
G37*
G36*
X175336010Y-130018014D02*
G01*
X176548446Y-130718014D01*
X175548446Y-132450064D01*
X174336010Y-131750064D01*
X175336010Y-130018014D01*
G37*
G36*
X174451554Y-135049936D02*
G01*
X175663990Y-135749936D01*
X174663990Y-137481986D01*
X173451554Y-136781986D01*
X174451554Y-135049936D01*
G37*
G36*
X172936010Y-134174936D02*
G01*
X174148446Y-134874936D01*
X173148446Y-136606986D01*
X171936010Y-135906986D01*
X172936010Y-134174936D01*
G37*
G36*
X155761146Y-126450978D02*
G01*
X156123493Y-125098682D01*
X158055344Y-125616320D01*
X157692997Y-126968616D01*
X155761146Y-126450978D01*
G37*
G36*
X155308212Y-128141348D02*
G01*
X155670559Y-126789052D01*
X157602410Y-127306690D01*
X157240063Y-128658986D01*
X155308212Y-128141348D01*
G37*
G36*
X160397590Y-127693310D02*
G01*
X160759937Y-126341014D01*
X162691788Y-126858652D01*
X162329441Y-128210948D01*
X160397590Y-127693310D01*
G37*
G36*
X159944656Y-129383680D02*
G01*
X160307003Y-128031384D01*
X162238854Y-128549022D01*
X161876507Y-129901318D01*
X159944656Y-129383680D01*
G37*
D20*
X134100000Y-123625000D03*
X134100000Y-125375000D03*
X138900000Y-123625000D03*
X138900000Y-125375000D03*
X162600000Y-106375000D03*
X162600000Y-108125000D03*
X167400000Y-106375000D03*
X167400000Y-108125000D03*
X143600000Y-104000000D03*
X143600000Y-105750000D03*
X148400000Y-104000000D03*
X148400000Y-105750000D03*
X124600000Y-101625000D03*
X124600000Y-103375000D03*
X129400000Y-101625000D03*
X129400000Y-103375000D03*
X105600000Y-104000000D03*
X105600000Y-105750000D03*
X110400000Y-104000000D03*
X110400000Y-105750000D03*
X86600000Y-108750000D03*
X86600000Y-110500000D03*
X91400000Y-108750000D03*
X91400000Y-110500000D03*
X67600000Y-108750000D03*
X67600000Y-110500000D03*
X72400000Y-108750000D03*
X72400000Y-110500000D03*
X162600000Y-87375000D03*
X162600000Y-89125000D03*
X167400000Y-87375000D03*
X167400000Y-89125000D03*
X143600000Y-85000000D03*
X143600000Y-86750000D03*
X148400000Y-85000000D03*
X148400000Y-86750000D03*
X124600000Y-82625000D03*
X124600000Y-84375000D03*
X129400000Y-82625000D03*
X129400000Y-84375000D03*
X105600000Y-85000000D03*
X105600000Y-86750000D03*
X110400000Y-85000000D03*
X110400000Y-86750000D03*
X86600000Y-89750000D03*
X86600000Y-91500000D03*
X91400000Y-89750000D03*
X91400000Y-91500000D03*
X67600000Y-89750000D03*
X67600000Y-91500000D03*
X72400000Y-89750000D03*
X72400000Y-91500000D03*
X162600000Y-68375000D03*
X162600000Y-70125000D03*
X167400000Y-68375000D03*
X167400000Y-70125000D03*
X143600000Y-66000000D03*
X143600000Y-67750000D03*
X148400000Y-66000000D03*
X148400000Y-67750000D03*
X124600000Y-63625000D03*
X124600000Y-65375000D03*
X129400000Y-63625000D03*
X129400000Y-65375000D03*
X105600000Y-66000000D03*
X105600000Y-67750000D03*
X110400000Y-66000000D03*
X110400000Y-67750000D03*
X86600000Y-70750000D03*
X86600000Y-72500000D03*
X91400000Y-70750000D03*
X91400000Y-72500000D03*
X67600000Y-70750000D03*
X67600000Y-72500000D03*
X72400000Y-70750000D03*
X72400000Y-72500000D03*
D21*
X192100000Y-73042000D03*
X192100000Y-75582000D03*
X192100000Y-78122000D03*
X192100000Y-80662000D03*
X192100000Y-83202000D03*
X192100000Y-85742000D03*
X192100000Y-88282000D03*
X192100000Y-90822000D03*
X192100000Y-93362000D03*
X192100000Y-95902000D03*
X192100000Y-98442000D03*
X192100000Y-100982000D03*
X176860000Y-100982000D03*
X176860000Y-98442000D03*
X176860000Y-95902000D03*
X176860000Y-93362000D03*
X176860000Y-90822000D03*
X176860000Y-88282000D03*
X176860000Y-85742000D03*
X176860000Y-83202000D03*
X176860000Y-80662000D03*
X176860000Y-78122000D03*
X176860000Y-75582000D03*
X176860000Y-73042000D03*
X193406400Y-71772000D03*
X193406400Y-74312000D03*
X193406400Y-76852000D03*
X193406400Y-79392000D03*
X193406400Y-81932000D03*
X193406400Y-84472000D03*
X193406400Y-87012000D03*
X193406400Y-89552000D03*
X193406400Y-92092000D03*
X193406400Y-94632000D03*
X193406400Y-97172000D03*
X193406400Y-99712000D03*
X178186400Y-99712000D03*
X178186400Y-97172000D03*
X178186400Y-94632000D03*
X178186400Y-92092000D03*
X178186400Y-89552000D03*
X178186400Y-87012000D03*
X178186400Y-84472000D03*
X178186400Y-81932000D03*
X178186400Y-79392000D03*
X178186400Y-76852000D03*
X178186400Y-74312000D03*
X178186400Y-71772000D03*
D22*
X154000000Y-72150000D03*
X154000000Y-68600000D03*
X62000000Y-76900000D03*
X62000000Y-73350000D03*
X97000000Y-76900000D03*
X97000000Y-73350000D03*
X116000000Y-72150000D03*
X116000000Y-68600000D03*
X135000000Y-69775000D03*
X135000000Y-66225000D03*
X157000000Y-72150000D03*
X157000000Y-68600000D03*
X62000000Y-95900000D03*
X62000000Y-92350000D03*
X97000000Y-95900000D03*
X97000000Y-92350000D03*
X116000000Y-91150000D03*
X116000000Y-87600000D03*
X135000000Y-88775000D03*
X135000000Y-85225000D03*
X154000000Y-91150000D03*
X154000000Y-87600000D03*
X157000000Y-91150000D03*
X157000000Y-87600000D03*
X62000000Y-114900000D03*
X62000000Y-111350000D03*
X97000000Y-114900000D03*
X97000000Y-111350000D03*
X116000000Y-110150000D03*
X116000000Y-106600000D03*
X135000000Y-107775000D03*
X135000000Y-104225000D03*
X157000000Y-110150000D03*
X157000000Y-106600000D03*
X128500000Y-129775000D03*
X128500000Y-126225000D03*
X144500000Y-129525000D03*
X144500000Y-125975000D03*
X147500000Y-129525000D03*
X147500000Y-125975000D03*
X154000000Y-110150000D03*
X154000000Y-106600000D03*
D23*
X189540000Y-108000000D03*
X184460000Y-108000000D03*
X189540000Y-110300000D03*
X184460000Y-110300000D03*
D24*
X188875000Y-100749620D03*
X188875000Y-101750380D03*
X186375000Y-100749620D03*
X186375000Y-101750380D03*
X183875000Y-100749620D03*
X183875000Y-101750380D03*
X181375000Y-100749620D03*
X181375000Y-101750380D03*
D25*
X174000000Y-102820000D03*
X174000000Y-105360000D03*
X174000000Y-107900000D03*
D23*
X181300000Y-105300000D03*
X183840000Y-105300000D03*
X186380000Y-105300000D03*
X188920000Y-105300000D03*
D26*
X79500000Y-105500000D03*
D27*
X177750000Y-115750000D03*
X192250000Y-124250000D03*
D26*
X79500000Y-86750000D03*
X98500000Y-86750000D03*
X98500000Y-105750000D03*
X155500000Y-83000000D03*
X122750000Y-122750000D03*
X169250000Y-130500000D03*
D23*
X181000000Y-108000000D03*
X181000000Y-110300000D03*
D28*
X192900000Y-103750000D03*
X192900000Y-110250000D03*
D29*
X181100000Y-112800000D03*
D30*
X180600000Y-112800000D03*
X181600000Y-112800000D03*
M02*
