M48
; DRILL file {KiCad (5.1.6)-1} date 05/17/20 02:55:56
; FORMAT={-:-/ absolute / inch / decimal}
; #@! TF.CreationDate,2020-05-17T02:55:56+03:00
; #@! TF.GenerationSoftware,Kicad,Pcbnew,(5.1.6)-1
FMAT,2
INCH
T1C0.0157
T2C0.0320
T3C0.0394
T4C0.0472
T5C0.0512
T6C0.0591
T7C0.0866
T8C0.1890
T9C0.0394
T10C0.0472
T11C0.0669
T12C0.0748
T13C0.1575
%
G90
G05
T1
X2.622Y-2.8976
X2.626Y-3.6457
X2.6299Y-4.3976
X2.6535Y-2.9055
X2.6575Y-3.6535
X2.6654Y-4.3976
X2.8425Y-3.7126
X2.8583Y-2.7244
X2.8583Y-3.4843
X2.8583Y-4.2283
X2.8701Y-3.748
X2.878Y-4.4803
X2.9094Y-3.4331
X2.9094Y-3.5512
X2.9134Y-4.2835
X2.9173Y-2.8071
X2.9173Y-4.1772
X2.9252Y-3.7323
X2.9409Y-4.4685
X3.0276Y-2.9685
X3.1772Y-3.8268
X3.1929Y-4.5551
X3.2047Y-3.6575
X3.2087Y-3.8504
X3.2638Y-3.7244
X3.2795Y-4.4646
X3.2913Y-3.4291
X3.2913Y-3.4961
X3.3386Y-3.4921
X3.3465Y-4.1299
X3.3504Y-3.3819
X3.3543Y-4.3504
X3.3583Y-4.315
X3.3701Y-3.6457
X3.378Y-2.8976
X3.4016Y-3.6496
X3.4173Y-2.9016
X3.4872Y-3.3848
X3.4921Y-4.1299
X3.5187Y-3.3829
X3.5256Y-4.1299
X3.5984Y-4.2402
X3.6063Y-2.7362
X3.6102Y-3.4843
X3.6575Y-4.1339
X3.6614Y-3.5354
X3.6654Y-2.7992
X3.6693Y-3.4252
X3.6693Y-4.2756
X3.685Y-4.1142
X3.6969Y-3.3543
X3.748Y-4.2402
X3.7638Y-3.2126
X3.7677Y-2.9331
X3.7717Y-3.7087
X3.7717Y-3.9016
X3.8858Y-4.3583
X3.9055Y-2.878
X3.9055Y-4.3268
X3.9134Y-2.9449
X3.9134Y-4.3898
X3.9409Y-2.8386
X3.9449Y-3.5984
X3.9449Y-4.4291
X3.9528Y-2.9055
X4.0354Y-3.5276
X4.1024Y-4.1339
X4.1024Y-4.2756
X4.1063Y-3.3819
X4.1181Y-2.7126
X4.126Y-4.3071
X4.1496Y-2.7165
X4.1496Y-3.4646
X4.1575Y-4.2087
X4.3307Y-3.1378
X4.3504Y-3.874
X4.3543Y-2.5512
X4.3583Y-3.2992
X4.3622Y-4.0512
X4.3622Y-4.626
X4.3976Y-2.5591
X4.4094Y-3.3583
X4.4094Y-4.0906
X4.4409Y-3.9606
X4.4449Y-3.2165
X4.4843Y-2.5512
X4.5157Y-2.7559
X4.5197Y-3.5079
X4.5197Y-3.9882
X4.6417Y-4.185
X4.685Y-3.437
X4.685Y-4.185
X4.6969Y-3.878
X4.7598Y-3.878
X4.7638Y-3.437
X4.7638Y-4.185
X4.7795Y-2.5433
X4.8386Y-4.0709
X4.8425Y-3.0906
X4.8425Y-3.2126
X4.8465Y-4.0354
X4.8504Y-2.5433
X4.8504Y-3.2835
X4.8514Y-4.564
X4.8937Y-2.622
X4.8976Y-3.3661
X4.9291Y-3.8937
X4.9833Y-3.1043
X4.9833Y-4.5994
X5.0148Y-3.1033
X5.0226Y-4.5994
X5.0945Y-4.5236
X5.1063Y-2.4606
X5.1063Y-3.7835
X5.1142Y-3.2087
X5.1417Y-3.0197
X5.1496Y-4.0354
X5.1535Y-3.2795
X5.1575Y-2.5039
X5.1575Y-4.5984
X5.1654Y-3.0984
X5.1772Y-4.8071
X5.185Y-4.0
X5.2008Y-3.0984
X5.2126Y-4.9055
X5.2283Y-4.7598
X5.2638Y-2.6535
X5.2638Y-3.1181
X5.2638Y-3.4094
X5.2638Y-4.1535
X5.2717Y-4.7087
X5.3031Y-4.6811
X5.4291Y-4.2677
X5.4409Y-3.5236
X5.4449Y-3.9173
X5.4449Y-3.9606
X5.4803Y-4.815
X5.5Y-3.9606
X5.5039Y-3.9213
X5.5079Y-3.5236
X5.5118Y-4.2677
X5.5276Y-4.8701
X5.5984Y-3.3858
X5.6024Y-2.6378
X5.6024Y-4.1299
X5.6024Y-4.8307
X5.6417Y-3.4646
X5.6457Y-2.7165
X5.6457Y-4.2126
X5.8386Y-3.878
X5.8425Y-3.126
X5.8425Y-4.626
X5.8504Y-2.5551
X5.8504Y-3.2992
X5.8504Y-4.0433
X5.9016Y-2.6102
X5.9016Y-3.3543
X5.9016Y-5.0354
X5.9055Y-4.0906
X5.9094Y-3.2126
X5.9213Y-4.6575
X5.9252Y-3.9843
X5.937Y-4.5906
X5.9646Y-2.6299
X5.9646Y-5.0354
X6.0118Y-2.7362
X6.0157Y-3.5039
X6.0157Y-4.248
X6.0512Y-4.937
X6.0945Y-3.9646
X6.0945Y-4.0039
X6.0945Y-4.0394
X6.1024Y-4.8228
X6.1024Y-4.937
X6.1496Y-4.063
X6.1575Y-4.0236
X6.1929Y-4.7598
X6.2717Y-4.7559
X6.3071Y-2.6929
X6.3386Y-3.3031
X6.3386Y-3.3976
X6.3425Y-4.7835
X6.3465Y-3.4764
X6.3504Y-2.7362
X6.3504Y-4.2244
X6.3819Y-4.9173
X6.3819Y-4.9724
X6.3898Y-2.811
X6.3898Y-3.5551
X6.4016Y-4.3031
X6.4291Y-4.0748
X6.4331Y-5.0118
X6.4793Y-3.2874
X6.4843Y-4.7844
X6.5108Y-3.2884
X6.5157Y-4.7844
X6.5157Y-4.8346
X6.5236Y-4.9449
X6.5984Y-4.1378
X6.6299Y-3.4016
X6.6457Y-2.6575
X6.6457Y-2.7047
X6.6496Y-3.4488
X6.6535Y-3.2441
X6.6535Y-4.1969
X6.6614Y-4.7756
X6.6969Y-5.3543
X6.7087Y-2.7047
X6.7126Y-3.4606
X6.7165Y-4.1969
X6.7244Y-3.5984
X6.7283Y-2.8386
X6.7283Y-3.8898
X6.7323Y-4.3386
X6.7559Y-3.1969
X6.7559Y-4.8425
X6.7559Y-4.9449
X6.7559Y-5.0315
X6.7874Y-4.6811
X6.7874Y-4.8071
X6.7874Y-4.9213
X6.7874Y-5.4016
X6.8189Y-2.8543
X6.8189Y-3.0748
X6.8189Y-3.1772
X6.8189Y-3.5984
X6.8189Y-3.9449
X6.8228Y-4.374
X6.8268Y-4.7362
X6.8307Y-4.3189
X6.8504Y-2.8858
X6.8504Y-2.9606
X6.8504Y-3.0433
X6.8504Y-3.5669
X6.8543Y-3.0906
X6.8543Y-3.1575
X6.8622Y-4.4055
X6.8622Y-4.9921
X6.8701Y-5.1378
X6.8819Y-3.0315
X6.9173Y-4.148
X6.9606Y-5.1299
X7.063Y-4.4016
X7.0669Y-2.8757
X7.1102Y-2.9764
X7.1614Y-4.2008
X7.1732Y-4.3898
X7.2283Y-3.8661
X7.252Y-3.2323
X7.2638Y-2.878
X7.2717Y-3.9331
X7.2763Y-2.9757
X7.2795Y-3.374
X7.2835Y-3.2795
X7.2874Y-3.9646
X7.311Y-3.126
X7.311Y-3.2244
X7.311Y-3.9016
X7.315Y-2.8228
X7.3261Y-2.9757
X7.3307Y-2.9213
X7.378Y-3.4252
X7.4134Y-3.7913
X7.4213Y-3.4921
X7.4213Y-3.5984
X7.4291Y-3.6929
X7.437Y-3.2953
X7.4488Y-3.6575
X7.4488Y-3.7638
X7.4488Y-3.8583
X7.4528Y-3.3583
X7.4528Y-3.4606
X7.4528Y-3.563
X7.4921Y-3.0757
X7.5079Y-3.8976
X7.5079Y-3.9528
T2
X7.126Y-4.3425
X5.8071Y-4.9583
X5.8071Y-5.2583
X5.0591Y-4.9681
X5.0591Y-5.2681
X4.5669Y-2.6994
X4.5669Y-2.9994
X6.063Y-4.1955
X6.063Y-4.4955
X6.1811Y-3.4474
X6.1811Y-3.7474
X6.1811Y-4.1955
X6.1811Y-4.4955
X7.2622Y-4.252
X7.4622Y-4.252
X2.4409Y-4.3825
X2.4409Y-4.6825
X3.8189Y-4.3825
X3.8189Y-4.6825
X7.126Y-4.252
X5.315Y-4.102
X5.315Y-4.402
X4.5669Y-4.1955
X4.5669Y-4.4955
X5.315Y-2.6059
X5.315Y-2.9059
X5.689Y-4.9583
X5.689Y-5.2583
X2.4409Y-2.8864
X2.4409Y-3.1864
X6.063Y-3.4474
X6.063Y-3.7474
X4.5669Y-3.4474
X4.5669Y-3.7474
X5.315Y-3.3539
X5.315Y-3.6539
X2.4409Y-3.6344
X2.4409Y-3.9344
X3.8189Y-2.8864
X3.8189Y-3.1864
X6.963Y-2.8757
X6.963Y-2.9757
X6.963Y-3.0757
X6.963Y-3.1757
X6.963Y-3.2757
X6.963Y-3.3757
X6.963Y-3.4757
X6.963Y-3.5757
X6.963Y-3.6757
X6.963Y-3.7757
X6.963Y-3.8757
X6.963Y-3.9757
X7.0152Y-2.8257
X7.0152Y-2.9257
X7.0152Y-3.0257
X7.0152Y-3.1257
X7.0152Y-3.2257
X7.0152Y-3.3257
X7.0152Y-3.4257
X7.0152Y-3.5257
X7.0152Y-3.6257
X7.0152Y-3.7257
X7.0152Y-3.8257
X7.0152Y-3.9257
X7.563Y-2.8757
X7.563Y-2.9757
X7.563Y-3.0757
X7.563Y-3.1757
X7.563Y-3.2757
X7.563Y-3.3757
X7.563Y-3.4757
X7.563Y-3.5757
X7.563Y-3.6757
X7.563Y-3.7757
X7.563Y-3.8757
X7.563Y-3.9757
X7.6144Y-2.8257
X7.6144Y-2.9257
X7.6144Y-3.0257
X7.6144Y-3.1257
X7.6144Y-3.2257
X7.6144Y-3.3257
X7.6144Y-3.4257
X7.6144Y-3.5257
X7.6144Y-3.6257
X7.6144Y-3.7257
X7.6144Y-3.8257
X7.6144Y-3.9257
X7.1378Y-4.1457
X7.2378Y-4.1457
X7.3378Y-4.1457
X7.4378Y-4.1457
X6.063Y-2.6994
X6.063Y-2.9994
X6.1811Y-2.6994
X6.1811Y-2.9994
X3.8189Y-3.6344
X3.8189Y-3.9344
X7.2622Y-4.3425
X7.4622Y-4.3425
T4
X4.0512Y-3.751
X4.252Y-3.8297
X4.4528Y-3.751
X4.0512Y-3.003
X4.252Y-3.0817
X4.4528Y-3.003
X5.9671Y-5.3227
X6.1407Y-5.4507
X6.355Y-5.4267
X2.5551Y-3.938
X2.7559Y-4.0167
X2.9567Y-3.938
X7.1094Y-5.6247
X7.2779Y-5.4902
X7.3101Y-5.2769
X5.5472Y-3.751
X5.748Y-3.8297
X5.9488Y-3.751
X3.3031Y-3.19
X3.5039Y-3.2687
X3.7047Y-3.19
X4.7992Y-4.4055
X5.0Y-4.4843
X5.2008Y-4.4055
X4.7992Y-2.9094
X5.0Y-2.9882
X5.2008Y-2.9094
X6.2953Y-3.0965
X6.4961Y-3.1752
X6.6969Y-3.0965
X2.5551Y-3.19
X2.7559Y-3.2687
X2.9567Y-3.19
X3.3031Y-3.938
X3.5039Y-4.0167
X3.7047Y-3.938
X4.7992Y-3.6575
X5.0Y-3.7362
X5.2008Y-3.6575
X5.1732Y-5.2717
X5.374Y-5.3504
X5.5748Y-5.2717
X5.5472Y-4.499
X5.748Y-4.5778
X5.9488Y-4.499
X2.5551Y-4.686
X2.7559Y-4.7648
X2.9567Y-4.686
X3.3031Y-4.686
X3.5039Y-4.7648
X3.7047Y-4.686
X6.2953Y-4.5925
X6.4961Y-4.6713
X6.6969Y-4.5925
X6.2953Y-3.8445
X6.4961Y-3.9232
X6.6969Y-3.8445
X4.0512Y-4.499
X4.252Y-4.5778
X4.4528Y-4.499
X5.5472Y-3.003
X5.748Y-3.0817
X5.9488Y-3.003
T5
X7.5945Y-4.0846
X7.5945Y-4.3406
T6
X6.3461Y-4.539
X6.3961Y-4.5965
X6.3961Y-4.6161
X6.3961Y-4.639
X6.5961Y-4.5965
X6.5961Y-4.6161
X6.5961Y-4.639
X6.6461Y-4.539
X6.3461Y-3.7909
X6.3961Y-3.8484
X6.3961Y-3.8681
X6.3961Y-3.8909
X6.5961Y-3.8484
X6.5961Y-3.8681
X6.5961Y-3.8909
X6.6461Y-3.7909
X4.102Y-4.4455
X4.152Y-4.503
X4.152Y-4.5226
X4.152Y-4.5455
X4.352Y-4.503
X4.352Y-4.5226
X4.352Y-4.5455
X4.402Y-4.4455
X5.598Y-2.9494
X5.648Y-3.0069
X5.648Y-3.0266
X5.648Y-3.0494
X5.848Y-3.0069
X5.848Y-3.0266
X5.848Y-3.0494
X5.898Y-2.9494
X4.102Y-3.6974
X4.152Y-3.7549
X4.152Y-3.7746
X4.152Y-3.7974
X4.352Y-3.7549
X4.352Y-3.7746
X4.352Y-3.7974
X4.402Y-3.6974
X4.102Y-2.9494
X4.152Y-3.0069
X4.152Y-3.0266
X4.152Y-3.0494
X4.352Y-3.0069
X4.352Y-3.0266
X4.352Y-3.0494
X4.402Y-2.9494
X6.03Y-5.2841
X6.0524Y-5.3937
X6.0583Y-5.3716
X6.0634Y-5.3526
X6.2456Y-5.4454
X6.2515Y-5.4234
X6.2566Y-5.4044
X6.3198Y-5.3618
X2.6059Y-3.8844
X2.6559Y-3.9419
X2.6559Y-3.9616
X2.6559Y-3.9844
X2.8559Y-3.9419
X2.8559Y-3.9616
X2.8559Y-3.9844
X2.9059Y-3.8844
X7.0884Y-5.5539
X7.1632Y-5.5394
X7.1802Y-5.5492
X7.2Y-5.5606
X7.2384Y-5.2941
X7.2632Y-5.3662
X7.2802Y-5.376
X7.3Y-5.3874
X5.598Y-3.6974
X5.648Y-3.7549
X5.648Y-3.7746
X5.648Y-3.7974
X5.848Y-3.7549
X5.848Y-3.7746
X5.848Y-3.7974
X5.898Y-3.6974
X3.3539Y-3.1364
X3.4039Y-3.1939
X3.4039Y-3.2136
X3.4039Y-3.2364
X3.6039Y-3.1939
X3.6039Y-3.2136
X3.6039Y-3.2364
X3.6539Y-3.1364
X4.85Y-4.352
X4.9Y-4.4094
X4.9Y-4.4291
X4.9Y-4.452
X5.1Y-4.4094
X5.1Y-4.4291
X5.1Y-4.452
X5.15Y-4.352
X4.85Y-2.8559
X4.9Y-2.9134
X4.9Y-2.9331
X4.9Y-2.9559
X5.1Y-2.9134
X5.1Y-2.9331
X5.1Y-2.9559
X5.15Y-2.8559
X6.3461Y-3.0429
X6.3961Y-3.1004
X6.3961Y-3.1201
X6.3961Y-3.1429
X6.5961Y-3.1004
X6.5961Y-3.1201
X6.5961Y-3.1429
X6.6461Y-3.0429
X2.6059Y-3.1364
X2.6559Y-3.1939
X2.6559Y-3.2136
X2.6559Y-3.2364
X2.8559Y-3.1939
X2.8559Y-3.2136
X2.8559Y-3.2364
X2.9059Y-3.1364
X3.3539Y-3.8844
X3.4039Y-3.9419
X3.4039Y-3.9616
X3.4039Y-3.9844
X3.6039Y-3.9419
X3.6039Y-3.9616
X3.6039Y-3.9844
X3.6539Y-3.8844
X4.85Y-3.6039
X4.9Y-3.6614
X4.9Y-3.6811
X4.9Y-3.7039
X5.1Y-3.6614
X5.1Y-3.6811
X5.1Y-3.7039
X5.15Y-3.6039
X5.224Y-5.2181
X5.274Y-5.2756
X5.274Y-5.2953
X5.274Y-5.3181
X5.474Y-5.2756
X5.474Y-5.2953
X5.474Y-5.3181
X5.524Y-5.2181
X5.598Y-4.4455
X5.648Y-4.503
X5.648Y-4.5226
X5.648Y-4.5455
X5.848Y-4.503
X5.848Y-4.5226
X5.848Y-4.5455
X5.898Y-4.4455
X2.6059Y-4.6325
X2.6559Y-4.69
X2.6559Y-4.7096
X2.6559Y-4.7325
X2.8559Y-4.69
X2.8559Y-4.7096
X2.8559Y-4.7325
X2.9059Y-4.6325
X3.3539Y-4.6325
X3.4039Y-4.69
X3.4039Y-4.7096
X3.4039Y-4.7325
X3.6039Y-4.69
X3.6039Y-4.7096
X3.6039Y-4.7325
X3.6539Y-4.6325
T7
X7.5689Y-4.8917
X6.998Y-4.5571
T8
X6.122Y-3.2677
X3.878Y-4.1634
X4.8327Y-4.8327
X3.878Y-3.4154
X6.6634Y-5.1378
X3.1299Y-4.1535
X3.1299Y-3.4154
T9
X4.0465Y-4.1801
X4.4575Y-4.1801
X5.5425Y-2.6841
X5.9535Y-2.6841
X4.0465Y-3.4321
X4.4575Y-3.4321
X4.0465Y-2.6841
X4.4575Y-2.6841
X6.0451Y-5.0135
X6.4421Y-5.1198
X2.5504Y-3.6191
X2.9614Y-3.6191
X6.8308Y-5.4693
X7.0363Y-5.1134
X5.5425Y-3.4321
X5.9535Y-3.4321
X3.2984Y-2.8711
X3.7094Y-2.8711
X4.7945Y-4.0866
X5.2055Y-4.0866
X4.7945Y-2.5906
X5.2055Y-2.5906
X6.2906Y-2.7776
X6.7016Y-2.7776
X2.5504Y-2.8711
X2.9614Y-2.8711
X3.2984Y-3.6191
X3.7094Y-3.6191
X4.7945Y-3.3386
X5.2055Y-3.3386
X5.1685Y-4.9528
X5.5795Y-4.9528
X5.5425Y-4.1801
X5.9535Y-4.1801
X2.5504Y-4.3671
X2.9614Y-4.3671
X3.2984Y-4.3671
X3.7094Y-4.3671
X6.2906Y-4.2736
X6.7016Y-4.2736
X6.2906Y-3.5256
X6.7016Y-3.5256
T10
X7.3307Y-4.5256
X7.3307Y-4.5945
X7.6063Y-4.5256
X7.6063Y-4.5945
T11
X6.2961Y-4.439
X6.6961Y-4.439
X6.2961Y-3.6909
X6.6961Y-3.6909
X4.052Y-4.3455
X4.452Y-4.3455
X5.548Y-2.8494
X5.948Y-2.8494
X4.052Y-3.5974
X4.452Y-3.5974
X4.052Y-2.8494
X4.452Y-2.8494
X6.0076Y-5.1746
X6.394Y-5.2781
X2.5559Y-3.7844
X2.9559Y-3.7844
X6.9768Y-5.5472
X7.1768Y-5.2008
X5.548Y-3.5974
X5.948Y-3.5974
X3.3039Y-3.0364
X3.7039Y-3.0364
X4.8Y-4.252
X5.2Y-4.252
X4.8Y-2.7559
X5.2Y-2.7559
X6.2961Y-2.9429
X6.6961Y-2.9429
X2.5559Y-3.0364
X2.9559Y-3.0364
X3.3039Y-3.7844
X3.7039Y-3.7844
X4.8Y-3.5039
X5.2Y-3.5039
X5.174Y-5.1181
X5.574Y-5.1181
X5.548Y-4.3455
X5.948Y-4.3455
X2.5559Y-4.5325
X2.9559Y-4.5325
X3.3039Y-4.5325
X3.7039Y-4.5325
T12
X6.2795Y-4.439
X6.7126Y-4.439
X6.2795Y-3.6909
X6.7126Y-3.6909
X4.0354Y-4.3455
X4.4685Y-4.3455
X5.5315Y-2.8494
X5.9646Y-2.8494
X4.0354Y-3.5974
X4.4685Y-3.5974
X4.0354Y-2.8494
X4.4685Y-2.8494
X5.9916Y-5.1703
X6.4099Y-5.2824
X2.5394Y-3.7844
X2.9724Y-3.7844
X6.9685Y-5.5615
X7.185Y-5.1865
X5.5315Y-3.5974
X5.9646Y-3.5974
X3.2874Y-3.0364
X3.7205Y-3.0364
X4.7835Y-4.252
X5.2165Y-4.252
X4.7835Y-2.7559
X5.2165Y-2.7559
X6.2795Y-2.9429
X6.7126Y-2.9429
X2.5394Y-3.0364
X2.9724Y-3.0364
X3.2874Y-3.7844
X3.7205Y-3.7844
X4.7835Y-3.5039
X5.2165Y-3.5039
X5.1575Y-5.1181
X5.5906Y-5.1181
X5.5315Y-4.3455
X5.9646Y-4.3455
X2.5394Y-4.5325
X2.9724Y-4.5325
X3.2874Y-4.5325
X3.7205Y-4.5325
T13
X2.7559Y-3.7844
X7.0768Y-5.374
X5.748Y-3.5974
X3.5039Y-3.0364
X5.0Y-4.252
X5.0Y-2.7559
X6.4961Y-2.9429
X2.7559Y-3.0364
X3.5039Y-3.7844
X5.0Y-3.5039
X5.374Y-5.1181
X5.748Y-4.3455
X2.7559Y-4.5325
X3.5039Y-4.5325
X6.4961Y-4.439
X6.4961Y-3.6909
X4.252Y-4.3455
X5.748Y-2.8494
X4.252Y-3.5974
X4.252Y-2.8494
X6.2008Y-5.2264
T3
G00X7.2106Y-4.5118
M15
G01X7.1909Y-4.5118
M16
G05
G00X7.2106Y-4.6083
M15
G01X7.1909Y-4.6083
M16
G05
G00X7.2697Y-4.4429
M15
G01X7.25Y-4.4429
M16
G05
G00X7.2697Y-4.6772
M15
G01X7.25Y-4.6772
M16
G05
G00X7.4272Y-4.4429
M15
G01X7.4075Y-4.4429
M16
G05
G00X7.4272Y-4.6772
M15
G01X7.4075Y-4.6772
M16
G05
G00X7.5453Y-4.4429
M15
G01X7.5256Y-4.4429
M16
G05
G00X7.5453Y-4.6772
M15
G01X7.5256Y-4.6772
M16
G05
T0
M30
